<?xml version="1.0" encoding="UTF-8" standalone="no"?>
<svg
   xmlns:dc="http://purl.org/dc/elements/1.1/"
   xmlns:cc="http://creativecommons.org/ns#"
   xmlns:rdf="http://www.w3.org/1999/02/22-rdf-syntax-ns#"
   xmlns:svg="http://www.w3.org/2000/svg"
   xmlns="http://www.w3.org/2000/svg"
   xmlns:sodipodi="http://sodipodi.sourceforge.net/DTD/sodipodi-0.dtd"
   xmlns:inkscape="http://www.inkscape.org/namespaces/inkscape"
   inkscape:version="1.0beta1 (32d4812, 2019-09-19)"
   sodipodi:docname="bg-right.svg"
   id="svg938"
   style="fill-rule:evenodd;clip-rule:evenodd;stroke-miterlimit:10;"
   xml:space="preserve"
   version="1.1"
   viewBox="0 0 525 463"
   height="100%"
   width="100%"><metadata
   id="metadata944">
  <rdf:RDF>
    <cc:Work
       rdf:about="">
      <dc:format>image/svg+xml</dc:format>
      <dc:type
         rdf:resource="http://purl.org/dc/dcmitype/StillImage" />
    </cc:Work>
  </rdf:RDF>
</metadata>
<defs
   id="defs942" />
<sodipodi:namedview
   inkscape:current-layer="svg938"
   inkscape:window-maximized="0"
   inkscape:window-y="23"
   inkscape:window-x="0"
   inkscape:cy="273.51972"
   inkscape:cx="349.01581"
   inkscape:zoom="0.82897661"
   showgrid="false"
   id="namedview940"
   inkscape:window-height="790"
   inkscape:window-width="1440"
   inkscape:pageshadow="2"
   inkscape:pageopacity="0"
   guidetolerance="10"
   gridtolerance="10"
   objecttolerance="10"
   borderopacity="1"
   inkscape:document-rotation="0"
   bordercolor="#666666"
   pagecolor="#ffffff" />

    <g
   id="g936"
   transform="translate(-976.78899,-37.1495)">
        <g
   id="g934">
            <g
   id="g928">
                <g
   id="g835"
   transform="translate(1184.65,351.004)">
                    <path
   inkscape:connector-curvature="0"
   id="path833"
   style="fill:#4688f1;fill-rule:nonzero"
   d="M 0,-21.853 V 0.001 l -17.316,2.375 c -1.13,4.171 -2.81,8.267 -5.073,12.186 -2.262,3.918 -4.969,7.42 -8.016,10.485 l 6.6,16.184 -18.925,10.927 -10.723,-13.817 c -8.449,2.243 -17.471,2.324 -26.171,0.009 l -10.715,13.808 -18.927,-10.927 6.601,-16.184 C -109.02,18.671 -113.461,10.816 -115.743,2.378 L -133.07,0.001 v -21.854 l 17.316,-2.376 c 1.13,-4.171 2.81,-8.266 5.073,-12.185 2.263,-3.919 4.969,-7.422 8.016,-10.486 l -6.601,-16.184 18.927,-10.927 10.722,13.818 c 8.449,-2.244 17.471,-2.326 26.171,-0.009 l 10.716,-13.809 18.925,10.927 -6.601,16.184 c 6.356,6.376 10.797,14.231 13.079,22.67 z" />

                </g>

                <g
   id="g839"
   transform="matrix(0.499991,-0.866031,-0.866031,-0.499991,1134.56,330.582)">
                    <path
   inkscape:connector-curvature="0"
   id="path837"
   style="fill:#ffffff;fill-rule:nonzero"
   d="m -16.445,-9.495 c -10.487,10e-4 -18.988,8.502 -18.988,18.989 0,10.487 8.501,18.988 18.988,18.988 10.487,0 18.988,-8.501 18.988,-18.988 0,-10.487 -8.501,-18.988 -18.988,-18.989" />

                </g>

                <g
   id="g843"
   transform="translate(1347.18,265.933)">
                    <path
   inkscape:connector-curvature="0"
   id="path841"
   style="fill:#4688f1;fill-rule:nonzero"
   d="m 0,-228.783 c -63.176,0 -114.391,51.215 -114.391,114.391 C -114.391,-51.215 -63.176,0 0,0 63.177,0 114.392,-51.215 114.392,-114.392 114.392,-177.568 63.177,-228.783 0,-228.783 m 0,2 c 30.021,0 58.245,11.69 79.473,32.918 21.228,21.228 32.919,49.453 32.919,79.473 0,30.021 -11.691,58.245 -32.919,79.473 C 58.245,-13.691 30.021,-2 0,-2 c -30.021,0 -58.245,-11.691 -79.473,-32.919 -21.228,-21.228 -32.918,-49.452 -32.918,-79.473 0,-30.02 11.69,-58.245 32.918,-79.473 21.228,-21.228 49.452,-32.918 79.473,-32.918" />

                </g>

                <g
   id="g847"
   transform="translate(1347.18,265.933)">
                    <path
   inkscape:connector-curvature="0"
   id="path845"
   style="fill:#4688f1;fill-rule:nonzero"
   d="m 0,-228.783 c -24.97,0 -45.211,51.215 -45.211,114.391 C -45.211,-51.215 -24.97,0 0,0 24.97,0 45.212,-51.215 45.212,-114.392 45.212,-177.568 24.97,-228.783 0,-228.783 m 0,2 c 11.037,0 22.012,11.75 30.11,32.239 8.449,21.378 13.102,49.843 13.102,80.152 0,30.31 -4.653,58.775 -13.102,80.152 C 22.012,-13.751 11.037,-2 0,-2 c -11.037,0 -22.011,-11.751 -30.109,-32.24 -8.45,-21.377 -13.102,-49.842 -13.102,-80.152 0,-30.309 4.652,-58.774 13.102,-80.152 8.098,-20.489 19.072,-32.239 30.109,-32.239" />

                </g>

                <g
   id="g851"
   transform="translate(1234.79,155.656)">
                    <path
   inkscape:connector-curvature="0"
   id="path849"
   style="fill:none;fill-rule:nonzero;stroke:#4688f1;stroke-width:2px"
   d="M 0,0 H 224.783" />

                </g>

                <g
   id="g855"
   transform="translate(1253.13,215.413)">
                    <path
   inkscape:connector-curvature="0"
   id="path853"
   style="fill:none;fill-rule:nonzero;stroke:#4688f1;stroke-width:2px"
   d="M 0,0 H 186.94" />

                </g>

                <g
   id="g859"
   transform="translate(1248.51,96.5406)">
                    <path
   inkscape:connector-curvature="0"
   id="path857"
   style="fill:none;fill-rule:nonzero;stroke:#4688f1;stroke-width:2px"
   d="M 0,0 H 197.643" />

                </g>

                <g
   id="g863"
   transform="translate(1438.79,357.383)">
                    <path
   inkscape:connector-curvature="0"
   id="path861"
   style="fill:#ffffff;fill-rule:nonzero"
   d="m 0,-22.592 c -6.239,0 -11.296,5.058 -11.296,11.296 C -11.296,-5.058 -6.239,0 0,0 6.239,0 11.296,-5.058 11.296,-11.296 11.296,-17.534 6.239,-22.592 0,-22.592 m 0,2 c 5.126,0 9.296,4.17 9.296,9.296 C 9.296,-6.17 5.126,-2 0,-2 c -5.125,0 -9.296,-4.17 -9.296,-9.296 0,-5.126 4.171,-9.296 9.296,-9.296" />

                </g>

                <g
   id="g867"
   transform="translate(1438.79,385.519)">
                    <path
   inkscape:connector-curvature="0"
   id="path865"
   style="fill:#ffffff;fill-rule:nonzero"
   d="m 0,-22.953 c -12.677,0 -22.953,10.276 -22.953,22.953 H 22.954 C 22.954,-12.677 12.677,-22.953 0,-22.953 m 0,2 c 10.88,0 19.849,8.334 20.859,18.953 h -41.718 c 1.01,-10.619 9.98,-18.953 20.859,-18.953" />

                </g>

                <g
   id="g871"
   transform="matrix(0,1,1,0,1377.58,334.791)">
                    <path
   inkscape:connector-curvature="0"
   id="path869"
   style="fill:#4688f1;fill-rule:nonzero"
   d="m 11.296,-11.296 c 6.238,0 11.296,5.058 11.296,11.296 0,6.239 -5.058,11.296 -11.296,11.296 C 5.058,11.296 0,6.239 0,0 0,-6.238 5.058,-11.296 11.296,-11.296" />

                </g>

                <g
   id="g875"
   transform="translate(1354.63,362.567)">
                    <path
   inkscape:connector-curvature="0"
   id="path873"
   style="fill:#4688f1;fill-rule:nonzero"
   d="M 0,22.953 C 0,10.276 10.277,0 22.954,0 35.63,0 45.907,10.276 45.907,22.953 Z" />

                </g>

                <g
   id="g879"
   transform="translate(1500,357.383)">
                    <path
   inkscape:connector-curvature="0"
   id="path877"
   style="fill:#ffffff;fill-rule:nonzero"
   d="m 0,-22.592 c -6.239,0 -11.296,5.058 -11.296,11.296 C -11.296,-5.058 -6.239,0 0,0 6.238,0 11.296,-5.058 11.296,-11.296 11.296,-17.534 6.238,-22.592 0,-22.592 m 0,2 c 5.126,0 9.296,4.17 9.296,9.296 C 9.296,-6.17 5.126,-2 0,-2 c -5.126,0 -9.296,-4.17 -9.296,-9.296 0,-5.126 4.17,-9.296 9.296,-9.296" />

                </g>

                <g
   id="g883"
   transform="translate(1500,385.519)">
                    <path
   inkscape:connector-curvature="0"
   id="path881"
   style="fill:#ffffff;fill-rule:nonzero"
   d="m 0,-22.953 c -12.677,0 -22.954,10.276 -22.954,22.953 H 22.953 C 22.953,-12.677 12.677,-22.953 0,-22.953 m 0,2 c 10.879,0 19.849,8.334 20.858,18.953 H -20.859 C -19.849,-12.619 -10.88,-20.953 0,-20.953" />

                </g>

                <g
   id="g887"
   transform="translate(1210.1,293.073)">
                    <path
   inkscape:connector-curvature="0"
   id="path885"
   style="fill:none;fill-rule:nonzero;stroke:#ffffff;stroke-width:2px;stroke-dasharray:6, 6"
   d="M 0,0 H 297.011" />

                </g>

                <g
   id="g891"
   transform="matrix(0,1,1,0,1370.41,362.837)">
                    <path
   inkscape:connector-curvature="0"
   id="path889"
   style="fill:none;fill-rule:nonzero;stroke:#ffffff;stroke-width:2px;stroke-dasharray:6, 6"
   d="M -115.026,-115.026 H 115.026" />

                </g>

                <g
   id="g922">
                    <clipPath
   id="_clip1">
                        <path
   inkscape:connector-curvature="0"
   id="path893"
   clip-rule="nonzero"
   d="M 1347.39,110.395 V 247.811 H 1210.1 v 92.266 h -91.5 V 500 H 1500 V 110.395 Z" />

                    </clipPath>

                    <g
   id="g920"
   clip-path="url(#_clip1)">
                        <g
   id="g898"
   transform="translate(1347.18,265.933)">
                            <path
   inkscape:connector-curvature="0"
   id="path896"
   style="fill:#ffffff;fill-rule:nonzero"
   d="m 0,-228.783 c -63.176,0 -114.391,51.215 -114.391,114.391 C -114.391,-51.215 -63.176,0 0,0 63.177,0 114.392,-51.215 114.392,-114.392 114.392,-177.568 63.177,-228.783 0,-228.783 m 0,2 c 30.021,0 58.245,11.69 79.473,32.918 21.228,21.228 32.919,49.453 32.919,79.473 0,30.021 -11.691,58.245 -32.919,79.473 C 58.245,-13.691 30.021,-2 0,-2 c -30.021,0 -58.245,-11.691 -79.473,-32.919 -21.228,-21.228 -32.918,-49.452 -32.918,-79.473 0,-30.02 11.69,-58.245 32.918,-79.473 21.228,-21.228 49.452,-32.918 79.473,-32.918" />

                        </g>

                        <g
   id="g902"
   transform="translate(1347.18,265.933)">
                            <path
   inkscape:connector-curvature="0"
   id="path900"
   style="fill:#ffffff;fill-rule:nonzero"
   d="m 0,-228.783 c -24.97,0 -45.211,51.215 -45.211,114.391 C -45.211,-51.215 -24.97,0 0,0 24.97,0 45.212,-51.215 45.212,-114.392 45.212,-177.568 24.97,-228.783 0,-228.783 m 0,2 c 11.037,0 22.012,11.75 30.11,32.239 8.449,21.378 13.102,49.843 13.102,80.152 0,30.31 -4.653,58.775 -13.102,80.152 C 22.012,-13.751 11.037,-2 0,-2 c -11.037,0 -22.011,-11.751 -30.109,-32.24 -8.45,-21.377 -13.102,-49.842 -13.102,-80.152 0,-30.309 4.652,-58.774 13.102,-80.152 8.098,-20.489 19.072,-32.239 30.109,-32.239" />

                        </g>

                        <g
   id="g906"
   transform="translate(1232.79,155.656)">
                            <path
   inkscape:connector-curvature="0"
   id="path904"
   style="fill:none;fill-rule:nonzero;stroke:#ffffff;stroke-width:2px"
   d="M 0,0 H 227.783" />

                        </g>

                        <g
   id="g910"
   transform="translate(1254.39,215.523)">
                            <path
   inkscape:connector-curvature="0"
   id="path908"
   style="fill:none;fill-rule:nonzero;stroke:#ffffff;stroke-width:2px"
   d="M 0,0 H 186.687" />

                        </g>

                        <g
   id="g914"
   transform="translate(1141.92,403.162)">
                            <path
   inkscape:connector-curvature="0"
   id="path912"
   style="fill:#ffffff;fill-rule:nonzero"
   d="m 0,-126.169 -10.716,13.809 c -4.307,-1.147 -8.692,-1.706 -13.049,-1.706 -4.443,0 -8.856,0.582 -13.122,1.714 l -10.722,-13.817 -18.926,10.927 6.601,16.183 c -3.047,3.065 -5.754,6.567 -8.017,10.487 -2.262,3.919 -3.943,8.014 -5.072,12.185 l -17.316,2.376 v 21.854 l 17.327,2.377 c 2.282,8.438 6.722,16.293 13.078,22.669 L -66.535,-10.927 -47.609,0 -36.894,-13.809 c 4.308,1.147 8.693,1.705 13.05,1.705 4.443,0 8.856,-0.581 13.122,-1.713 L 0,0 18.926,-10.927 12.325,-27.111 c 3.048,-3.065 5.754,-6.567 8.017,-10.486 2.262,-3.919 3.942,-8.014 5.073,-12.185 l 17.315,-2.375 v -21.854 l -17.327,-2.378 c -2.281,-8.439 -6.722,-16.293 -13.078,-22.669 l 6.601,-16.184 z m -48.12,2.604 9.653,12.439 0.813,1.047 1.28,-0.34 c 4.117,-1.093 8.359,-1.647 12.609,-1.647 4.234,0 8.452,0.551 12.535,1.638 l 1.281,0.342 0.813,-1.048 9.647,-12.431 15.905,9.183 -5.943,14.569 -0.501,1.228 0.937,0.939 c 5.992,6.012 10.337,13.542 12.563,21.779 l 0.346,1.28 1.313,0.18 15.599,2.14 v 18.365 l -15.587,2.138 -1.312,0.18 -0.347,1.278 c -1.106,4.083 -2.746,8.023 -4.875,11.709 -2.127,3.686 -4.719,7.075 -7.702,10.075 l -0.934,0.94 0.5,1.226 5.943,14.569 -15.905,9.182 -9.653,-12.439 -0.813,-1.047 -1.281,0.34 c -4.117,1.094 -8.358,1.647 -12.608,1.647 -4.234,0 -8.451,-0.55 -12.535,-1.637 l -1.282,-0.342 -0.813,1.048 -9.646,12.43 -15.904,-9.182 5.942,-14.569 0.501,-1.228 -0.937,-0.939 c -5.992,-6.012 -10.336,-13.543 -12.564,-21.78 l -0.345,-1.279 -1.313,-0.18 -15.599,-2.14 v -18.365 l 15.588,-2.139 1.312,-0.18 0.346,-1.278 c 1.106,-4.083 2.746,-8.022 4.874,-11.708 2.129,-3.686 4.72,-7.076 7.703,-10.076 l 0.934,-0.939 -0.501,-1.227 -5.941,-14.568 15.904,-9.183" />

                        </g>

                        <g
   id="g918"
   transform="translate(1118.14,359.069)">
                            <path
   inkscape:connector-curvature="0"
   id="path916"
   style="fill:#ffffff;fill-rule:nonzero"
   d="m 0,-37.983 c -6.562,0 -12.945,3.406 -16.462,9.497 -5.244,9.082 -2.132,20.695 6.95,25.939 C -6.521,-0.821 -3.257,0 -0.036,0 6.526,0 12.91,-3.406 16.426,-9.498 21.67,-18.58 18.558,-30.192 9.476,-35.436 6.486,-37.163 3.222,-37.983 0,-37.983 m 0,2 c 2.963,0 5.894,0.788 8.476,2.279 3.93,2.269 6.741,5.932 7.916,10.316 1.174,4.383 0.571,8.961 -1.698,12.89 C 11.668,-5.255 6.024,-2 -0.036,-2 c -2.963,0 -5.894,-0.788 -8.476,-2.279 -3.93,-2.269 -6.741,-5.933 -7.915,-10.315 -1.175,-4.384 -0.572,-8.962 1.697,-12.892 3.026,-5.241 8.67,-8.497 14.73,-8.497" />

                        </g>

                    </g>

                </g>

                <g
   id="g926"
   transform="translate(1301.68,421.077)">
                    <path
   inkscape:connector-curvature="0"
   id="path924"
   style="fill:none;fill-rule:nonzero;stroke:#ffffff;stroke-width:2px"
   d="M 0,0 H 46.274" />

                </g>

            </g>

            <g
   id="g932"
   transform="translate(1118.6,110.394)">
                <path
   inkscape:connector-curvature="0"
   id="path930"
   style="fill:#d3e3fb;fill-rule:nonzero"
   d="M 0,389.606 V 229.683 H 91.507 V 137.417 H 228.795 V 0 h 228.274 v 389.606 z" />

            </g>

        </g>

    </g>

</svg>
