<?xml version="1.0" encoding="UTF-8" standalone="no"?>
<!DOCTYPE svg PUBLIC "-//W3C//DTD SVG 1.1//EN" "http://www.w3.org/Graphics/SVG/1.1/DTD/svg11.dtd">
<svg width="100%" height="100%" viewBox="0 0 412 79" version="1.1" xmlns="http://www.w3.org/2000/svg" xmlns:xlink="http://www.w3.org/1999/xlink" xml:space="preserve" xmlns:serif="http://www.serif.com/" style="fill-rule:evenodd;clip-rule:evenodd;stroke-linejoin:round;stroke-miterlimit:2;">
    <g transform="matrix(1,0,0,1,-1356,-618)">
        <g>
            <g transform="matrix(1.0198,0,0,0.897727,-35.0099,63.2045)">
                <rect x="1364" y="618" width="404" height="88" style="fill:white;"/>
            </g>
            <g transform="matrix(1,0,0,1,1074.88,360.355)">
                <g>
                    <path d="M370.431,294.407C368.636,294.407 366.978,293.972 365.458,293.101C363.938,292.229 362.738,291.03 361.858,289.501C360.978,287.972 360.538,286.283 360.538,284.434C360.538,282.585 360.978,280.897 361.858,279.368C362.738,277.839 363.938,276.639 365.458,275.768C366.978,274.897 368.636,274.461 370.431,274.461C371.836,274.461 373.156,274.71 374.391,275.208C375.627,275.706 376.644,276.408 377.444,277.315L375.818,278.941C375.213,278.195 374.436,277.621 373.485,277.221C372.533,276.821 371.516,276.621 370.431,276.621C369.098,276.621 367.849,276.946 366.685,277.595C365.52,278.243 364.587,279.159 363.885,280.341C363.183,281.523 362.832,282.888 362.832,284.434C362.832,285.981 363.183,287.345 363.885,288.527C364.587,289.71 365.52,290.625 366.685,291.274C367.849,291.923 369.098,292.247 370.431,292.247C371.711,292.247 372.782,292.047 373.645,291.647C374.507,291.247 375.258,290.718 375.898,290.061C376.36,289.563 376.733,288.959 377.018,288.247C377.302,287.536 377.471,286.763 377.524,285.928L370.485,285.928L370.485,283.821L379.658,283.821C379.746,284.319 379.791,284.781 379.791,285.208C379.791,286.381 379.604,287.523 379.231,288.634C378.858,289.745 378.262,290.718 377.444,291.554C375.649,293.456 373.311,294.407 370.431,294.407Z" style="fill:rgb(101,108,115);fill-rule:nonzero;"/>
                    <path d="M388.27,294.407C386.973,294.407 385.808,294.1 384.777,293.487C383.746,292.874 382.942,292.029 382.364,290.954C381.786,289.878 381.497,288.683 381.497,287.367C381.497,286.052 381.786,284.856 382.364,283.781C382.942,282.705 383.746,281.861 384.777,281.248C385.808,280.634 386.973,280.328 388.27,280.328C389.568,280.328 390.737,280.634 391.777,281.248C392.817,281.861 393.626,282.705 394.204,283.781C394.781,284.856 395.07,286.052 395.07,287.367C395.07,288.683 394.781,289.878 394.204,290.954C393.626,292.029 392.817,292.874 391.777,293.487C390.737,294.1 389.568,294.407 388.27,294.407ZM388.27,292.354C389.07,292.354 389.817,292.149 390.51,291.741C391.204,291.332 391.759,290.75 392.177,289.994C392.595,289.239 392.804,288.363 392.804,287.367C392.804,286.372 392.595,285.496 392.177,284.741C391.759,283.985 391.204,283.403 390.51,282.994C389.817,282.585 389.07,282.381 388.27,282.381C387.488,282.381 386.751,282.585 386.057,282.994C385.364,283.403 384.808,283.985 384.391,284.741C383.973,285.496 383.764,286.372 383.764,287.367C383.764,288.363 383.973,289.239 384.391,289.994C384.808,290.75 385.364,291.332 386.057,291.741C386.751,292.149 387.488,292.354 388.27,292.354Z" style="fill:rgb(101,108,115);fill-rule:nonzero;"/>
                    <path d="M403.39,294.407C402.092,294.407 400.928,294.1 399.897,293.487C398.866,292.874 398.061,292.029 397.483,290.954C396.906,289.878 396.617,288.683 396.617,287.367C396.617,286.052 396.906,284.856 397.483,283.781C398.061,282.705 398.866,281.861 399.897,281.248C400.928,280.634 402.092,280.328 403.39,280.328C404.687,280.328 405.856,280.634 406.896,281.248C407.936,281.861 408.745,282.705 409.323,283.781C409.901,284.856 410.189,286.052 410.189,287.367C410.189,288.683 409.901,289.878 409.323,290.954C408.745,292.029 407.936,292.874 406.896,293.487C405.856,294.1 404.687,294.407 403.39,294.407ZM403.39,292.354C404.19,292.354 404.936,292.149 405.63,291.741C406.323,291.332 406.878,290.75 407.296,289.994C407.714,289.239 407.923,288.363 407.923,287.367C407.923,286.372 407.714,285.496 407.296,284.741C406.878,283.985 406.323,283.403 405.63,282.994C404.936,282.585 404.19,282.381 403.39,282.381C402.608,282.381 401.87,282.585 401.177,282.994C400.483,283.403 399.928,283.985 399.51,284.741C399.092,285.496 398.883,286.372 398.883,287.367C398.883,288.363 399.092,289.239 399.51,289.994C399.928,290.75 400.483,291.332 401.177,291.741C401.87,292.149 402.608,292.354 403.39,292.354Z" style="fill:rgb(101,108,115);fill-rule:nonzero;"/>
                    <path d="M418.296,300.167C416.696,300.167 415.389,299.785 414.376,299.02C413.363,298.256 412.678,297.367 412.323,296.354L414.429,295.474C414.696,296.256 415.171,296.891 415.856,297.38C416.54,297.869 417.354,298.114 418.296,298.114C419.7,298.114 420.78,297.7 421.536,296.874C422.291,296.047 422.669,294.896 422.669,293.421L422.669,292.007L422.562,292.007C422.136,292.683 421.522,293.243 420.722,293.687C419.922,294.132 419.016,294.354 418.002,294.354C416.882,294.354 415.843,294.052 414.883,293.447C413.923,292.843 413.158,292.007 412.589,290.941C412.02,289.874 411.736,288.674 411.736,287.341C411.736,286.008 412.02,284.808 412.589,283.741C413.158,282.674 413.923,281.839 414.883,281.234C415.843,280.63 416.882,280.328 418.002,280.328C419.016,280.328 419.922,280.55 420.722,280.994C421.522,281.439 422.136,281.999 422.562,282.674L422.669,282.674L422.669,280.754L424.829,280.754L424.829,293.447C424.829,294.905 424.544,296.14 423.975,297.154C423.407,298.167 422.629,298.922 421.642,299.42C420.656,299.918 419.54,300.167 418.296,300.167ZM418.349,292.301C419.131,292.301 419.851,292.101 420.509,291.701C421.167,291.301 421.696,290.727 422.096,289.981C422.496,289.234 422.696,288.354 422.696,287.341C422.696,286.328 422.496,285.443 422.096,284.688C421.696,283.932 421.167,283.359 420.509,282.968C419.851,282.577 419.131,282.381 418.349,282.381C417.567,282.381 416.847,282.581 416.189,282.981C415.531,283.381 415.003,283.954 414.603,284.701C414.203,285.448 414.003,286.328 414.003,287.341C414.003,288.354 414.203,289.234 414.603,289.981C415.003,290.727 415.531,291.301 416.189,291.701C416.847,292.101 417.567,292.301 418.349,292.301Z" style="fill:rgb(101,108,115);fill-rule:nonzero;"/>
                    <rect x="427.549" y="274.888" width="2.267" height="19.092" style="fill:rgb(101,108,115);fill-rule:nonzero;"/>
                    <path d="M438.615,294.407C437.335,294.407 436.193,294.105 435.188,293.501C434.184,292.896 433.397,292.061 432.828,290.994C432.26,289.927 431.975,288.719 431.975,287.367C431.975,286.088 432.242,284.91 432.775,283.834C433.308,282.759 434.068,281.906 435.055,281.274C436.042,280.643 437.175,280.328 438.455,280.328C439.735,280.328 440.859,280.617 441.828,281.194C442.797,281.772 443.539,282.585 444.055,283.634C444.57,284.683 444.828,285.892 444.828,287.261C444.828,287.51 444.81,287.687 444.774,287.794L434.268,287.794C434.304,288.79 434.544,289.63 434.988,290.314C435.433,290.998 435.988,291.51 436.655,291.847C437.321,292.185 438.01,292.354 438.721,292.354C440.392,292.354 441.681,291.536 442.588,289.901L444.588,290.861C444.019,291.927 443.232,292.785 442.228,293.434C441.224,294.083 440.019,294.407 438.615,294.407ZM442.428,285.901C442.392,285.368 442.241,284.834 441.975,284.301C441.708,283.768 441.277,283.314 440.681,282.941C440.086,282.568 439.326,282.381 438.401,282.381C437.406,282.381 436.544,282.701 435.815,283.341C435.086,283.981 434.624,284.834 434.428,285.901L442.428,285.901Z" style="fill:rgb(101,108,115);fill-rule:nonzero;"/>
                    <path d="M453.494,274.888L459.28,274.888C461.236,274.888 462.943,275.292 464.4,276.101C465.858,276.91 466.978,278.035 467.76,279.475C468.542,280.914 468.933,282.568 468.933,284.434C468.933,286.301 468.542,287.954 467.76,289.394C466.978,290.834 465.858,291.958 464.4,292.767C462.943,293.576 461.236,293.981 459.28,293.981L453.494,293.981L453.494,274.888ZM459.28,291.821C461.538,291.821 463.325,291.172 464.64,289.874C465.956,288.576 466.613,286.763 466.613,284.434C466.613,282.106 465.956,280.292 464.64,278.995C463.325,277.697 461.538,277.048 459.28,277.048L455.761,277.048L455.761,291.821L459.28,291.821Z" style="fill:rgb(101,108,115);fill-rule:nonzero;"/>
                    <path d="M477.493,294.407C476.213,294.407 475.071,294.105 474.066,293.501C473.062,292.896 472.275,292.061 471.707,290.994C471.138,289.927 470.853,288.719 470.853,287.367C470.853,286.088 471.12,284.91 471.653,283.834C472.187,282.759 472.946,281.906 473.933,281.274C474.92,280.643 476.053,280.328 477.333,280.328C478.613,280.328 479.737,280.617 480.706,281.194C481.675,281.772 482.417,282.585 482.933,283.634C483.448,284.683 483.706,285.892 483.706,287.261C483.706,287.51 483.688,287.687 483.653,287.794L473.146,287.794C473.182,288.79 473.422,289.63 473.866,290.314C474.311,290.998 474.866,291.51 475.533,291.847C476.2,292.185 476.889,292.354 477.6,292.354C479.271,292.354 480.559,291.536 481.466,289.901L483.466,290.861C482.897,291.927 482.11,292.785 481.106,293.434C480.102,294.083 478.897,294.407 477.493,294.407ZM481.306,285.901C481.271,285.368 481.119,284.834 480.853,284.301C480.586,283.768 480.155,283.314 479.559,282.941C478.964,282.568 478.204,282.381 477.28,282.381C476.284,282.381 475.422,282.701 474.693,283.341C473.964,283.981 473.502,284.834 473.306,285.901L481.306,285.901Z" style="fill:rgb(101,108,115);fill-rule:nonzero;"/>
                    <path d="M484.239,280.754L486.692,280.754L490.746,291.314L490.799,291.314L494.905,280.754L497.305,280.754L491.892,293.981L489.599,293.981L484.239,280.754Z" style="fill:rgb(101,108,115);fill-rule:nonzero;"/>
                    <path d="M504.878,294.407C503.598,294.407 502.456,294.105 501.452,293.501C500.447,292.896 499.661,292.061 499.092,290.994C498.523,289.927 498.239,288.719 498.239,287.367C498.239,286.088 498.505,284.91 499.039,283.834C499.572,282.759 500.332,281.906 501.318,281.274C502.305,280.643 503.438,280.328 504.718,280.328C505.998,280.328 507.123,280.617 508.091,281.194C509.06,281.772 509.802,282.585 510.318,283.634C510.834,284.683 511.091,285.892 511.091,287.261C511.091,287.51 511.074,287.687 511.038,287.794L500.532,287.794C500.567,288.79 500.807,289.63 501.252,290.314C501.696,290.998 502.252,291.51 502.918,291.847C503.585,292.185 504.274,292.354 504.985,292.354C506.656,292.354 507.945,291.536 508.851,289.901L510.851,290.861C510.282,291.927 509.496,292.785 508.491,293.434C507.487,294.083 506.283,294.407 504.878,294.407ZM508.691,285.901C508.656,285.368 508.505,284.834 508.238,284.301C507.971,283.768 507.54,283.314 506.945,282.941C506.349,282.568 505.589,282.381 504.665,282.381C503.669,282.381 502.807,282.701 502.078,283.341C501.35,283.981 500.887,284.834 500.692,285.901L508.691,285.901Z" style="fill:rgb(101,108,115);fill-rule:nonzero;"/>
                    <rect x="513.385" y="274.888" width="2.267" height="19.092" style="fill:rgb(101,108,115);fill-rule:nonzero;"/>
                    <path d="M524.584,294.407C523.286,294.407 522.122,294.1 521.091,293.487C520.06,292.874 519.255,292.029 518.678,290.954C518.1,289.878 517.811,288.683 517.811,287.367C517.811,286.052 518.1,284.856 518.678,283.781C519.255,282.705 520.06,281.861 521.091,281.248C522.122,280.634 523.286,280.328 524.584,280.328C525.882,280.328 527.051,280.634 528.091,281.248C529.13,281.861 529.939,282.705 530.517,283.781C531.095,284.856 531.384,286.052 531.384,287.367C531.384,288.683 531.095,289.878 530.517,290.954C529.939,292.029 529.13,292.874 528.091,293.487C527.051,294.1 525.882,294.407 524.584,294.407ZM524.584,292.354C525.384,292.354 526.131,292.149 526.824,291.741C527.517,291.332 528.073,290.75 528.49,289.994C528.908,289.239 529.117,288.363 529.117,287.367C529.117,286.372 528.908,285.496 528.49,284.741C528.073,283.985 527.517,283.403 526.824,282.994C526.131,282.585 525.384,282.381 524.584,282.381C523.802,282.381 523.064,282.585 522.371,282.994C521.677,283.403 521.122,283.985 520.704,284.741C520.286,285.496 520.078,286.372 520.078,287.367C520.078,288.363 520.286,289.239 520.704,289.994C521.122,290.75 521.677,291.332 522.371,291.741C523.064,292.149 523.802,292.354 524.584,292.354Z" style="fill:rgb(101,108,115);fill-rule:nonzero;"/>
                    <path d="M533.437,280.754L535.597,280.754L535.597,282.701L535.703,282.701C536.13,282.026 536.743,281.461 537.543,281.008C538.343,280.554 539.268,280.328 540.317,280.328C541.454,280.328 542.503,280.634 543.463,281.248C544.423,281.861 545.187,282.701 545.756,283.768C546.325,284.834 546.61,286.034 546.61,287.367C546.61,288.701 546.325,289.901 545.756,290.967C545.187,292.034 544.423,292.874 543.463,293.487C542.503,294.1 541.454,294.407 540.317,294.407C539.268,294.407 538.339,294.18 537.53,293.727C536.721,293.274 536.112,292.701 535.703,292.007L535.597,292.007L535.703,293.847L535.703,299.74L533.437,299.74L533.437,280.754ZM539.97,292.354C540.752,292.354 541.477,292.149 542.143,291.741C542.81,291.332 543.343,290.75 543.743,289.994C544.143,289.239 544.343,288.363 544.343,287.367C544.343,286.372 544.143,285.496 543.743,284.741C543.343,283.985 542.81,283.403 542.143,282.994C541.477,282.585 540.752,282.381 539.97,282.381C539.188,282.381 538.463,282.581 537.797,282.981C537.13,283.381 536.597,283.959 536.197,284.714C535.797,285.47 535.597,286.354 535.597,287.367C535.597,288.363 535.797,289.243 536.197,290.007C536.597,290.772 537.13,291.354 537.797,291.754C538.463,292.154 539.188,292.354 539.97,292.354Z" style="fill:rgb(101,108,115);fill-rule:nonzero;"/>
                    <path d="M555.329,294.407C554.049,294.407 552.907,294.105 551.903,293.501C550.898,292.896 550.112,292.061 549.543,290.994C548.974,289.927 548.69,288.719 548.69,287.367C548.69,286.088 548.956,284.91 549.49,283.834C550.023,282.759 550.783,281.906 551.769,281.274C552.756,280.643 553.889,280.328 555.169,280.328C556.449,280.328 557.574,280.617 558.542,281.194C559.511,281.772 560.253,282.585 560.769,283.634C561.284,284.683 561.542,285.892 561.542,287.261C561.542,287.51 561.524,287.687 561.489,287.794L550.983,287.794C551.018,288.79 551.258,289.63 551.703,290.314C552.147,290.998 552.703,291.51 553.369,291.847C554.036,292.185 554.725,292.354 555.436,292.354C557.107,292.354 558.396,291.536 559.302,289.901L561.302,290.861C560.733,291.927 559.947,292.785 558.942,293.434C557.938,294.083 556.734,294.407 555.329,294.407ZM559.142,285.901C559.107,285.368 558.956,284.834 558.689,284.301C558.422,283.768 557.991,283.314 557.396,282.941C556.8,282.568 556.04,282.381 555.116,282.381C554.12,282.381 553.258,282.701 552.529,283.341C551.801,283.981 551.338,284.834 551.143,285.901L559.142,285.901Z" style="fill:rgb(101,108,115);fill-rule:nonzero;"/>
                    <path d="M563.835,280.754L565.995,280.754L565.995,282.914L566.102,282.914C566.351,282.186 566.862,281.577 567.635,281.088C568.409,280.599 569.177,280.354 569.942,280.354C570.493,280.354 571.008,280.434 571.488,280.594L571.488,283.048C571.008,282.781 570.386,282.648 569.622,282.648C569,282.648 568.417,282.83 567.875,283.194C567.333,283.559 566.902,284.043 566.582,284.648C566.262,285.252 566.102,285.91 566.102,286.621L566.102,293.981L563.835,293.981L563.835,280.754Z" style="fill:rgb(101,108,115);fill-rule:nonzero;"/>
                    <path d="M588.128,294.407C586.332,294.407 584.674,293.972 583.155,293.101C581.635,292.229 580.435,291.03 579.555,289.501C578.675,287.972 578.235,286.283 578.235,284.434C578.235,282.585 578.675,280.897 579.555,279.368C580.435,277.839 581.635,276.639 583.155,275.768C584.674,274.897 586.332,274.461 588.128,274.461C589.532,274.461 590.852,274.71 592.087,275.208C593.323,275.706 594.341,276.408 595.141,277.315L593.514,278.941C592.91,278.195 592.132,277.621 591.181,277.221C590.23,276.821 589.212,276.621 588.128,276.621C586.794,276.621 585.546,276.946 584.381,277.595C583.217,278.243 582.283,279.159 581.581,280.341C580.879,281.523 580.528,282.888 580.528,284.434C580.528,285.981 580.879,287.345 581.581,288.527C582.283,289.71 583.217,290.625 584.381,291.274C585.546,291.923 586.794,292.247 588.128,292.247C589.408,292.247 590.479,292.047 591.341,291.647C592.203,291.247 592.954,290.718 593.594,290.061C594.056,289.563 594.43,288.959 594.714,288.247C594.998,287.536 595.167,286.763 595.221,285.928L588.181,285.928L588.181,283.821L597.354,283.821C597.443,284.319 597.487,284.781 597.487,285.208C597.487,286.381 597.301,287.523 596.927,288.634C596.554,289.745 595.958,290.718 595.141,291.554C593.345,293.456 591.008,294.407 588.128,294.407Z" style="fill:rgb(101,108,115);fill-rule:nonzero;"/>
                    <path d="M600.074,280.754L602.234,280.754L602.234,282.914L602.34,282.914C602.589,282.186 603.1,281.577 603.874,281.088C604.647,280.599 605.416,280.354 606.18,280.354C606.731,280.354 607.247,280.434 607.727,280.594L607.727,283.048C607.247,282.781 606.625,282.648 605.86,282.648C605.238,282.648 604.656,282.83 604.114,283.194C603.571,283.559 603.14,284.043 602.82,284.648C602.5,285.252 602.34,285.91 602.34,286.621L602.34,293.981L600.074,293.981L600.074,280.754Z" style="fill:rgb(101,108,115);fill-rule:nonzero;"/>
                    <path d="M614.793,294.407C613.495,294.407 612.331,294.1 611.3,293.487C610.269,292.874 609.464,292.029 608.887,290.954C608.309,289.878 608.02,288.683 608.02,287.367C608.02,286.052 608.309,284.856 608.887,283.781C609.464,282.705 610.269,281.861 611.3,281.248C612.331,280.634 613.495,280.328 614.793,280.328C616.091,280.328 617.26,280.634 618.3,281.248C619.34,281.861 620.148,282.705 620.726,283.781C621.304,284.856 621.593,286.052 621.593,287.367C621.593,288.683 621.304,289.878 620.726,290.954C620.148,292.029 619.34,292.874 618.3,293.487C617.26,294.1 616.091,294.407 614.793,294.407ZM614.793,292.354C615.593,292.354 616.34,292.149 617.033,291.741C617.726,291.332 618.282,290.75 618.7,289.994C619.117,289.239 619.326,288.363 619.326,287.367C619.326,286.372 619.117,285.496 618.7,284.741C618.282,283.985 617.726,283.403 617.033,282.994C616.34,282.585 615.593,282.381 614.793,282.381C614.011,282.381 613.273,282.585 612.58,282.994C611.887,283.403 611.331,283.985 610.913,284.741C610.495,285.496 610.287,286.372 610.287,287.367C610.287,288.363 610.495,289.239 610.913,289.994C611.331,290.75 611.887,291.332 612.58,291.741C613.273,292.149 614.011,292.354 614.793,292.354Z" style="fill:rgb(101,108,115);fill-rule:nonzero;"/>
                    <path d="M628.632,294.407C626.997,294.407 625.757,293.936 624.913,292.994C624.068,292.052 623.646,290.745 623.646,289.074L623.646,280.754L625.913,280.754L625.913,288.701C625.913,291.136 627.006,292.354 629.192,292.354C629.921,292.354 630.575,292.149 631.152,291.741C631.73,291.332 632.174,290.798 632.486,290.141C632.797,289.483 632.952,288.79 632.952,288.061L632.952,280.754L635.192,280.754L635.192,293.981L633.059,293.981L633.059,292.007L632.952,292.007C632.561,292.683 631.97,293.252 631.179,293.714C630.388,294.176 629.539,294.407 628.632,294.407Z" style="fill:rgb(101,108,115);fill-rule:nonzero;"/>
                    <path d="M638.152,280.754L640.312,280.754L640.312,282.701L640.419,282.701C640.845,282.026 641.458,281.461 642.258,281.008C643.058,280.554 643.983,280.328 645.032,280.328C646.169,280.328 647.218,280.634 648.178,281.248C649.138,281.861 649.903,282.701 650.471,283.768C651.04,284.834 651.325,286.034 651.325,287.367C651.325,288.701 651.04,289.901 650.471,290.967C649.903,292.034 649.138,292.874 648.178,293.487C647.218,294.1 646.169,294.407 645.032,294.407C643.983,294.407 643.054,294.18 642.245,293.727C641.436,293.274 640.827,292.701 640.419,292.007L640.312,292.007L640.419,293.847L640.419,299.74L638.152,299.74L638.152,280.754ZM644.685,292.354C645.467,292.354 646.192,292.149 646.858,291.741C647.525,291.332 648.058,290.75 648.458,289.994C648.858,289.239 649.058,288.363 649.058,287.367C649.058,286.372 648.858,285.496 648.458,284.741C648.058,283.985 647.525,283.403 646.858,282.994C646.192,282.585 645.467,282.381 644.685,282.381C643.903,282.381 643.178,282.581 642.512,282.981C641.845,283.381 641.312,283.959 640.912,284.714C640.512,285.47 640.312,286.354 640.312,287.367C640.312,288.363 640.512,289.243 640.912,290.007C641.312,290.772 641.845,291.354 642.512,291.754C643.178,292.154 643.903,292.354 644.685,292.354Z" style="fill:rgb(101,108,115);fill-rule:nonzero;"/>
                    <path d="M658.151,294.407C656.747,294.407 655.556,294.052 654.578,293.341C653.6,292.629 652.916,291.749 652.525,290.701L654.525,289.821C654.88,290.656 655.382,291.296 656.031,291.741C656.68,292.185 657.387,292.407 658.151,292.407C659.004,292.407 659.711,292.221 660.271,291.847C660.831,291.474 661.111,291.021 661.111,290.487C661.111,289.972 660.902,289.545 660.484,289.207C660.066,288.87 659.351,288.576 658.338,288.327L656.524,287.874C655.529,287.643 654.68,287.225 653.978,286.621C653.276,286.016 652.925,285.216 652.925,284.221C652.925,283.403 653.16,282.701 653.631,282.114C654.102,281.528 654.729,281.083 655.511,280.781C656.293,280.479 657.147,280.328 658.071,280.328C659.209,280.328 660.244,280.59 661.178,281.114C662.111,281.639 662.773,282.381 663.164,283.341L661.164,284.194C660.88,283.554 660.449,283.083 659.871,282.781C659.293,282.479 658.649,282.328 657.938,282.328C657.244,282.328 656.618,282.497 656.058,282.834C655.498,283.172 655.218,283.608 655.218,284.141C655.218,284.603 655.4,284.968 655.764,285.234C656.129,285.501 656.711,285.741 657.511,285.954L659.484,286.434C660.8,286.772 661.782,287.274 662.431,287.941C663.08,288.607 663.404,289.403 663.404,290.327C663.404,291.092 663.182,291.785 662.737,292.407C662.293,293.029 661.671,293.518 660.871,293.874C660.071,294.229 659.164,294.407 658.151,294.407Z" style="fill:rgb(101,108,115);fill-rule:nonzero;"/>
                    <path d="M363.974,317.541C363.1,317.541 362.337,317.3 361.684,316.819C361.031,316.338 360.572,315.66 360.306,314.786L361.617,314.239C362.016,315.544 362.801,316.197 363.974,316.197C364.627,316.197 365.149,315.97 365.542,315.516C365.935,315.063 366.131,314.465 366.131,313.724L366.131,305.393L367.542,305.393L367.542,313.608C367.542,314.438 367.39,315.148 367.085,315.74C366.781,316.332 366.361,316.78 365.824,317.085C365.288,317.389 364.671,317.541 363.974,317.541Z" style="fill:rgb(101,108,115);fill-rule:nonzero;"/>
                    <path d="M373.267,317.541C372.459,317.541 371.735,317.35 371.093,316.968C370.451,316.587 369.951,316.061 369.591,315.392C369.232,314.723 369.052,313.979 369.052,313.16C369.052,312.341 369.232,311.597 369.591,310.928C369.951,310.259 370.451,309.733 371.093,309.351C371.735,308.97 372.459,308.779 373.267,308.779C374.075,308.779 374.802,308.97 375.449,309.351C376.097,309.733 376.6,310.259 376.959,310.928C377.319,311.597 377.499,312.341 377.499,313.16C377.499,313.979 377.319,314.723 376.959,315.392C376.6,316.061 376.097,316.587 375.449,316.968C374.802,317.35 374.075,317.541 373.267,317.541ZM373.267,316.263C373.765,316.263 374.23,316.136 374.661,315.881C375.093,315.627 375.438,315.265 375.698,314.794C375.958,314.324 376.088,313.779 376.088,313.16C376.088,312.54 375.958,311.995 375.698,311.525C375.438,311.055 375.093,310.693 374.661,310.438C374.23,310.184 373.765,310.057 373.267,310.057C372.78,310.057 372.321,310.184 371.89,310.438C371.458,310.693 371.113,311.055 370.853,311.525C370.593,311.995 370.463,312.54 370.463,313.16C370.463,313.779 370.593,314.324 370.853,314.794C371.113,315.265 371.458,315.627 371.89,315.881C372.321,316.136 372.78,316.263 373.267,316.263Z" style="fill:rgb(101,108,115);fill-rule:nonzero;"/>
                    <path d="M382.71,321.125C381.714,321.125 380.901,320.888 380.27,320.412C379.64,319.936 379.214,319.383 378.992,318.752L380.303,318.205C380.469,318.691 380.765,319.087 381.191,319.391C381.617,319.695 382.123,319.848 382.71,319.848C383.584,319.848 384.256,319.59 384.726,319.076C385.196,318.562 385.431,317.845 385.431,316.927L385.431,316.047L385.365,316.047C385.099,316.468 384.718,316.816 384.22,317.093C383.722,317.369 383.158,317.508 382.527,317.508C381.83,317.508 381.183,317.32 380.585,316.944C379.988,316.567 379.512,316.047 379.158,315.384C378.804,314.72 378.627,313.973 378.627,313.143C378.627,312.314 378.804,311.567 379.158,310.903C379.512,310.239 379.988,309.719 380.585,309.343C381.183,308.967 381.83,308.779 382.527,308.779C383.158,308.779 383.722,308.917 384.22,309.194C384.718,309.47 385.099,309.819 385.365,310.239L385.431,310.239L385.431,309.044L386.775,309.044L386.775,316.944C386.775,317.851 386.598,318.62 386.244,319.25C385.89,319.881 385.406,320.351 384.792,320.661C384.178,320.971 383.484,321.125 382.71,321.125ZM382.743,316.23C383.23,316.23 383.678,316.105 384.087,315.857C384.496,315.608 384.825,315.251 385.074,314.786C385.323,314.322 385.448,313.774 385.448,313.143C385.448,312.513 385.323,311.962 385.074,311.492C384.825,311.022 384.496,310.665 384.087,310.422C383.678,310.178 383.23,310.057 382.743,310.057C382.256,310.057 381.808,310.181 381.399,310.43C380.989,310.679 380.66,311.036 380.411,311.5C380.162,311.965 380.038,312.513 380.038,313.143C380.038,313.774 380.162,314.322 380.411,314.786C380.66,315.251 380.989,315.608 381.399,315.857C381.808,316.105 382.256,316.23 382.743,316.23Z" style="fill:rgb(101,108,115);fill-rule:nonzero;"/>
                    <path d="M389.845,307.318C389.569,307.318 389.331,307.219 389.132,307.02C388.933,306.821 388.833,306.583 388.833,306.306C388.833,306.03 388.933,305.792 389.132,305.593C389.331,305.393 389.569,305.294 389.845,305.294C390.122,305.294 390.36,305.393 390.559,305.593C390.758,305.792 390.858,306.03 390.858,306.306C390.858,306.583 390.761,306.821 390.567,307.02C390.374,307.219 390.133,307.318 389.845,307.318ZM388.219,321.026C387.954,321.026 387.71,320.993 387.489,320.926L387.489,319.582C387.732,319.693 387.959,319.748 388.169,319.748C388.512,319.748 388.761,319.64 388.916,319.424C389.071,319.209 389.148,318.891 389.148,318.47L389.148,309.044L390.542,309.044L390.542,318.47C390.542,319.322 390.338,319.961 389.928,320.387C389.519,320.813 388.949,321.026 388.219,321.026Z" style="fill:rgb(101,108,115);fill-rule:nonzero;"/>
                    <path d="M395.322,317.541C394.724,317.541 394.185,317.422 393.704,317.184C393.222,316.946 392.846,316.614 392.575,316.188C392.304,315.762 392.169,315.284 392.169,314.753C392.169,313.879 392.498,313.199 393.156,312.712C393.814,312.225 394.658,311.982 395.687,311.982C396.196,311.982 396.655,312.037 397.064,312.148C397.474,312.258 397.8,312.38 398.043,312.513L398.043,312.081C398.043,311.683 397.941,311.326 397.736,311.011C397.532,310.696 397.258,310.452 396.915,310.281C396.572,310.109 396.201,310.023 395.803,310.023C394.863,310.023 394.143,310.405 393.646,311.168L392.467,310.389C392.81,309.88 393.264,309.484 393.828,309.202C394.392,308.92 395.029,308.779 395.737,308.779C396.865,308.779 397.756,309.083 398.408,309.692C399.061,310.3 399.387,311.119 399.387,312.148L399.387,317.275L398.043,317.275L398.043,316.064L397.977,316.064C397.711,316.484 397.352,316.836 396.898,317.118C396.445,317.4 395.919,317.541 395.322,317.541ZM395.438,316.296C395.88,316.296 396.301,316.18 396.699,315.948C397.097,315.715 397.421,315.4 397.67,315.002C397.919,314.604 398.043,314.172 398.043,313.707C397.424,313.309 396.71,313.11 395.903,313.11C395.206,313.11 394.65,313.268 394.235,313.583C393.82,313.898 393.612,314.299 393.612,314.786C393.612,315.229 393.795,315.591 394.16,315.873C394.525,316.155 394.951,316.296 395.438,316.296Z" style="fill:rgb(101,108,115);fill-rule:nonzero;"/>
                    <path d="M401.312,305.393L402.723,305.393L402.723,312.861L406.49,309.044L408.299,309.044L408.299,309.111L405.096,312.314L408.448,317.209L408.448,317.275L406.772,317.275L404.1,313.293L402.723,314.67L402.723,317.275L401.312,317.275L401.312,305.393Z" style="fill:rgb(101,108,115);fill-rule:nonzero;"/>
                    <path d="M412.016,317.541C411.419,317.541 410.879,317.422 410.398,317.184C409.917,316.946 409.541,316.614 409.27,316.188C408.999,315.762 408.863,315.284 408.863,314.753C408.863,313.879 409.192,313.199 409.851,312.712C410.509,312.225 411.352,311.982 412.381,311.982C412.89,311.982 413.349,312.037 413.759,312.148C414.168,312.258 414.494,312.38 414.738,312.513L414.738,312.081C414.738,311.683 414.635,311.326 414.431,311.011C414.226,310.696 413.952,310.452 413.609,310.281C413.266,310.109 412.896,310.023 412.497,310.023C411.557,310.023 410.838,310.405 410.34,311.168L409.162,310.389C409.505,309.88 409.958,309.484 410.523,309.202C411.087,308.92 411.723,308.779 412.431,308.779C413.56,308.779 414.45,309.083 415.103,309.692C415.756,310.3 416.082,311.119 416.082,312.148L416.082,317.275L414.738,317.275L414.738,316.064L414.671,316.064C414.406,316.484 414.046,316.836 413.593,317.118C413.139,317.4 412.614,317.541 412.016,317.541ZM412.132,316.296C412.575,316.296 412.995,316.18 413.394,315.948C413.792,315.715 414.115,315.4 414.364,315.002C414.613,314.604 414.738,314.172 414.738,313.707C414.118,313.309 413.405,313.11 412.597,313.11C411.9,313.11 411.344,313.268 410.929,313.583C410.514,313.898 410.307,314.299 410.307,314.786C410.307,315.229 410.489,315.591 410.855,315.873C411.22,316.155 411.646,316.296 412.132,316.296Z" style="fill:rgb(101,108,115);fill-rule:nonzero;"/>
                    <path d="M418.007,309.044L419.351,309.044L419.351,310.389L419.418,310.389C419.617,309.891 419.949,309.503 420.413,309.227C420.878,308.95 421.392,308.812 421.957,308.812C422.122,308.812 422.316,308.823 422.537,308.845L422.537,310.306C422.327,310.261 422.089,310.239 421.824,310.239C421.116,310.239 420.538,310.471 420.09,310.936C419.642,311.401 419.418,311.993 419.418,312.712L419.418,317.275L418.007,317.275L418.007,309.044ZM427.366,317.408C427.035,317.408 426.728,317.353 426.445,317.242C426.163,317.132 425.923,316.982 425.724,316.794C425.502,316.584 425.339,316.338 425.234,316.056C425.129,315.774 425.076,315.439 425.076,315.052L425.076,310.322L423.616,310.322L423.616,309.044L425.076,309.044L425.076,306.588L426.47,306.588L426.47,309.044L428.495,309.044L428.495,310.322L426.47,310.322L426.47,314.703C426.47,315.168 426.564,315.511 426.752,315.732C426.941,315.975 427.228,316.097 427.615,316.097C427.958,316.097 428.257,316.02 428.512,315.865L428.512,317.226C428.334,317.292 428.166,317.339 428.005,317.367C427.845,317.394 427.632,317.408 427.366,317.408Z" style="fill:rgb(101,108,115);fill-rule:nonzero;"/>
                    <path d="M432.644,317.541C432.046,317.541 431.507,317.422 431.026,317.184C430.544,316.946 430.168,316.614 429.897,316.188C429.626,315.762 429.491,315.284 429.491,314.753C429.491,313.879 429.82,313.199 430.478,312.712C431.136,312.225 431.98,311.982 433.009,311.982C433.518,311.982 433.977,312.037 434.386,312.148C434.795,312.258 435.122,312.38 435.365,312.513L435.365,312.081C435.365,311.683 435.263,311.326 435.058,311.011C434.854,310.696 434.58,310.452 434.237,310.281C433.894,310.109 433.523,310.023 433.125,310.023C432.185,310.023 431.465,310.405 430.968,311.168L429.789,310.389C430.132,309.88 430.586,309.484 431.15,309.202C431.714,308.92 432.35,308.779 433.059,308.779C434.187,308.779 435.078,309.083 435.73,309.692C436.383,310.3 436.709,311.119 436.709,312.148L436.709,317.275L435.365,317.275L435.365,316.064L435.299,316.064C435.033,316.484 434.674,316.836 434.22,317.118C433.767,317.4 433.241,317.541 432.644,317.541ZM432.76,316.296C433.202,316.296 433.623,316.18 434.021,315.948C434.419,315.715 434.743,315.4 434.992,315.002C435.241,314.604 435.365,314.172 435.365,313.707C434.746,313.309 434.032,313.11 433.224,313.11C432.527,313.11 431.972,313.268 431.557,313.583C431.142,313.898 430.934,314.299 430.934,314.786C430.934,315.229 431.117,315.591 431.482,315.873C431.847,316.155 432.273,316.296 432.76,316.296Z" style="fill:rgb(101,108,115);fill-rule:nonzero;"/>
                </g>
                <g transform="matrix(1,0,0,1,308.623,271.343)">
                    <path d="M0,13.382L8.548,8.446C10.56,7.285 11.248,4.713 10.087,2.701C8.926,0.69 6.354,0 4.342,1.162L-10.428,9.69L0,13.382Z" style="fill:rgb(234,67,53);fill-rule:nonzero;"/>
                </g>
                <g transform="matrix(1,0,0,1,315.063,279.871)">
                    <path d="M0,17.538C1.454,17.538 2.867,16.784 3.646,15.434C4.808,13.423 4.119,10.851 2.107,9.689L-12.663,1.162C-14.675,0 -17.246,0.689 -18.408,2.701C-19.569,4.713 -18.88,7.285 -16.868,8.446L-2.099,16.974C-1.437,17.356 -0.713,17.538 0,17.538" style="fill:rgb(66,133,244);fill-rule:nonzero;"/>
                </g>
                <g transform="matrix(1,0,0,1,329.755,284.549)">
                    <path d="M0,12.86C0.714,12.86 1.437,12.678 2.1,12.296L16.869,3.768L6.573,0L-2.106,5.011C-4.118,6.173 -4.808,8.745 -3.646,10.756C-2.867,12.106 -1.453,12.86 0,12.86" style="fill:rgb(251,188,4);fill-rule:nonzero;"/>
                </g>
                <g transform="matrix(1,0,0,1,344.517,271.343)">
                    <path d="M0,17.538C1.454,17.538 2.867,16.784 3.646,15.434C4.809,13.423 4.119,10.85 2.107,9.689L-12.662,1.162C-14.674,0 -17.246,0.689 -18.408,2.701C-19.569,4.713 -18.88,7.285 -16.868,8.446L-2.099,16.974C-1.437,17.356 -0.713,17.538 0,17.538" style="fill:rgb(15,157,88);fill-rule:nonzero;"/>
                </g>
            </g>
        </g>
    </g>
</svg>
