<?xml version="1.0" encoding="UTF-8" standalone="no"?>
<svg
   xmlns:dc="http://purl.org/dc/elements/1.1/"
   xmlns:cc="http://creativecommons.org/ns#"
   xmlns:rdf="http://www.w3.org/1999/02/22-rdf-syntax-ns#"
   xmlns:svg="http://www.w3.org/2000/svg"
   xmlns="http://www.w3.org/2000/svg"
   xmlns:sodipodi="http://sodipodi.sourceforge.net/DTD/sodipodi-0.dtd"
   xmlns:inkscape="http://www.inkscape.org/namespaces/inkscape"
   inkscape:version="1.0beta1 (32d4812, 2019-09-19)"
   sodipodi:docname="gdgjogjakarta.svg"
   id="svg921"
   style="fill-rule:evenodd;clip-rule:evenodd;stroke-linejoin:round;stroke-miterlimit:2;"
   xml:space="preserve"
   version="1.1"
   viewBox="0 0 1000 341"
   height="100%"
   width="100%"><metadata
   id="metadata927">
  <rdf:RDF>
    <cc:Work
       rdf:about="">
      <dc:format>image/svg+xml</dc:format>
      <dc:type
         rdf:resource="http://purl.org/dc/dcmitype/StillImage" />
      <dc:title></dc:title>
    </cc:Work>
  </rdf:RDF>
</metadata>
<defs
   id="defs925" />
<sodipodi:namedview
   inkscape:current-layer="g918"
   inkscape:window-maximized="0"
   inkscape:window-y="23"
   inkscape:window-x="0"
   inkscape:cy="218.04908"
   inkscape:cx="554.77253"
   inkscape:zoom="0.75900343"
   inkscape:guide-bbox="true"
   showguides="true"
   inkscape:showpageshadow="false"
   borderlayer="true"
   showgrid="false"
   id="namedview923"
   inkscape:window-height="790"
   inkscape:window-width="1440"
   inkscape:pageshadow="2"
   inkscape:pageopacity="0"
   guidetolerance="10"
   gridtolerance="10"
   objecttolerance="10"
   borderopacity="1"
   inkscape:document-rotation="0"
   bordercolor="#666666"
   pagecolor="#ffffff" />

    <g
   transform="matrix(1,0,0,1,0,-500)"
   id="Artboard1">
        <rect
   id="rect833"
   style="fill:none;"
   height="341"
   width="1000"
   y="500"
   x="0" />

        <clipPath
   id="_clip1">
            <rect
   id="rect835"
   height="341"
   width="1000"
   y="500"
   x="0" />

        </clipPath>

        <g
   id="g918"
   clip-path="url(#_clip1)">
            <g
   transform="translate(0,-48.748133)"
   id="g916">
                <g
   id="g840"
   transform="translate(0,500)">
                    <rect
   id="rect838"
   style="fill:#ffffff"
   height="421.078"
   width="1031.21"
   y="-35.09"
   x="-19.572001" />

                </g>

                <g
   id="g914"
   transform="translate(19.3343,23.1129)">
                    <g
   id="g862"
   transform="translate(0,-86.6824)">
                        <g
   id="g844"
   transform="matrix(0.169499,-0.293581,0.334238,0.192973,-56.1383,834.227)">
                            <path
   inkscape:connector-curvature="0"
   id="path842"
   style="fill:#ebebeb"
   d="M 737,362.283 C 737,339.498 715.94,321 690,321 c -25.94,0 -47,18.498 -47,41.283 v 168.434 c 0,22.785 21.06,41.283 47,41.283 25.94,0 47,-18.498 47,-41.283 z" />

                        </g>

                        <g
   id="g848"
   transform="matrix(-0.169499,-0.293581,0.334238,-0.192973,66.1645,1006.75)">
                            <path
   inkscape:connector-curvature="0"
   id="path846"
   style="fill:#ea4335"
   d="M 737,362.283 C 737,339.498 715.94,321 690,321 c -25.94,0 -47,18.498 -47,41.283 v 168.434 c 0,22.785 21.06,41.283 47,41.283 25.94,0 47,-18.498 47,-41.283 z" />

                        </g>

                        <g
   id="g852"
   transform="matrix(0.169499,-0.293581,0.334238,0.192973,-167.745,866.336)">
                            <path
   inkscape:connector-curvature="0"
   id="path850"
   style="fill:#4285f4"
   d="M 737,362.283 C 737,339.498 715.94,321 690,321 c -25.94,0 -47,18.498 -47,41.283 v 168.434 c 0,22.785 21.06,41.283 47,41.283 25.94,0 47,-18.498 47,-41.283 z" />

                        </g>

                        <g
   id="g856"
   transform="matrix(-0.169499,-0.293581,0.334238,-0.192973,177.771,1039.05)">
                            <path
   inkscape:connector-curvature="0"
   id="path854"
   style="fill:#fbbc04"
   d="M 737,362.283 C 737,339.498 715.94,321 690,321 c -25.94,0 -47,18.498 -47,41.283 v 168.434 c 0,22.785 21.06,41.283 47,41.283 25.94,0 47,-18.498 47,-41.283 z" />

                        </g>

                        <g
   id="g860"
   transform="matrix(0.169499,-0.293581,0.334238,0.192973,-56.1383,834.227)">
                            <path
   inkscape:connector-curvature="0"
   id="path858"
   style="fill:#0f9d58"
   d="M 737,362.283 C 737,339.498 715.94,321 690,321 c -25.94,0 -47,18.498 -47,41.283 v 168.434 c 0,22.785 21.06,41.283 47,41.283 25.94,0 47,-18.498 47,-41.283 z" />

                        </g>

                    </g>

                    <g
   id="g912"
   transform="matrix(1.7158,0,0,1.7158,-483.955,-632.093)">
                        <g
   id="g866"
   transform="matrix(50,0,0,50,450.006,759.954)">
                            <path
   inkscape:connector-curvature="0"
   id="path864"
   style="fill:#676c72;fill-rule:nonzero"
   d="M 0.416,0.016 C 0.349,0.016 0.287,0 0.23,-0.033 0.173,-0.066 0.128,-0.111 0.095,-0.168 c -0.033,-0.057 -0.05,-0.121 -0.05,-0.19 0,-0.069 0.017,-0.133 0.05,-0.19 0.033,-0.057 0.078,-0.102 0.135,-0.135 0.057,-0.033 0.119,-0.049 0.186,-0.049 0.053,0 0.102,0.009 0.149,0.028 0.046,0.019 0.084,0.045 0.114,0.079 L 0.618,-0.564 C 0.595,-0.592 0.566,-0.614 0.531,-0.629 0.496,-0.644 0.458,-0.651 0.417,-0.651 c -0.051,0 -0.098,0.012 -0.141,0.036 -0.044,0.025 -0.079,0.059 -0.105,0.103 -0.027,0.045 -0.04,0.096 -0.04,0.154 0,0.058 0.013,0.109 0.04,0.153 0.026,0.045 0.061,0.079 0.105,0.103 0.044,0.025 0.091,0.037 0.141,0.037 0.048,0 0.088,-0.008 0.121,-0.023 0.032,-0.014 0.06,-0.034 0.083,-0.059 0.017,-0.019 0.031,-0.041 0.042,-0.068 0.011,-0.026 0.017,-0.055 0.02,-0.087 H 0.418 v -0.079 h 0.344 c 0.003,0.019 0.005,0.036 0.005,0.052 0,0.044 -0.007,0.087 -0.021,0.128 C 0.732,-0.159 0.71,-0.122 0.679,-0.091 0.613,-0.02 0.525,0.016 0.416,0.016 Z" />

                        </g>

                        <g
   id="g870"
   transform="matrix(50,0,0,50,490.656,759.954)">
                            <path
   inkscape:connector-curvature="0"
   id="path868"
   style="fill:#676c72;fill-rule:nonzero"
   d="m 0.08,-0.716 h 0.216 c 0.073,0 0.137,0.015 0.192,0.045 0.055,0.031 0.097,0.073 0.126,0.127 0.029,0.054 0.044,0.116 0.044,0.186 0,0.07 -0.015,0.132 -0.044,0.186 C 0.585,-0.118 0.543,-0.076 0.488,-0.046 0.433,-0.015 0.369,0 0.296,0 H 0.08 Z m 0.216,0.635 c 0.085,0 0.152,-0.024 0.202,-0.073 0.049,-0.049 0.074,-0.117 0.074,-0.204 0,-0.087 -0.025,-0.155 -0.074,-0.204 C 0.448,-0.611 0.381,-0.635 0.296,-0.635 H 0.164 v 0.554 z" />

                        </g>

                        <g
   id="g874"
   transform="matrix(50,0,0,50,525.806,759.954)">
                            <path
   inkscape:connector-curvature="0"
   id="path872"
   style="fill:#676c72;fill-rule:nonzero"
   d="M 0.416,0.016 C 0.349,0.016 0.287,0 0.23,-0.033 0.173,-0.066 0.128,-0.111 0.095,-0.168 c -0.033,-0.057 -0.05,-0.121 -0.05,-0.19 0,-0.069 0.017,-0.133 0.05,-0.19 0.033,-0.057 0.078,-0.102 0.135,-0.135 0.057,-0.033 0.119,-0.049 0.186,-0.049 0.053,0 0.102,0.009 0.149,0.028 0.046,0.019 0.084,0.045 0.114,0.079 L 0.618,-0.564 C 0.595,-0.592 0.566,-0.614 0.531,-0.629 0.496,-0.644 0.458,-0.651 0.417,-0.651 c -0.051,0 -0.098,0.012 -0.141,0.036 -0.044,0.025 -0.079,0.059 -0.105,0.103 -0.027,0.045 -0.04,0.096 -0.04,0.154 0,0.058 0.013,0.109 0.04,0.153 0.026,0.045 0.061,0.079 0.105,0.103 0.044,0.025 0.091,0.037 0.141,0.037 0.048,0 0.088,-0.008 0.121,-0.023 0.032,-0.014 0.06,-0.034 0.083,-0.059 0.017,-0.019 0.031,-0.041 0.042,-0.068 0.011,-0.026 0.017,-0.055 0.02,-0.087 H 0.418 v -0.079 h 0.344 c 0.003,0.019 0.005,0.036 0.005,0.052 0,0.044 -0.007,0.087 -0.021,0.128 C 0.732,-0.159 0.71,-0.122 0.679,-0.091 0.613,-0.02 0.525,0.016 0.416,0.016 Z" />

                        </g>

                        <g
   id="g878"
   transform="matrix(50,0,0,50,575.056,759.954)">
                            <path
   inkscape:connector-curvature="0"
   id="path876"
   style="fill:#676c72;fill-rule:nonzero"
   d="M 0.247,0.016 C 0.194,0.016 0.148,0.002 0.109,-0.028 0.07,-0.057 0.042,-0.097 0.026,-0.15 l 0.08,-0.033 c 0.024,0.079 0.071,0.118 0.141,0.118 0.039,0 0.071,-0.014 0.095,-0.041 0.023,-0.027 0.035,-0.063 0.035,-0.108 v -0.502 h 0.085 v 0.495 c 0,0.05 -0.009,0.093 -0.027,0.128 C 0.416,-0.057 0.391,-0.03 0.359,-0.012 0.326,0.007 0.289,0.016 0.247,0.016 Z" />

                        </g>

                        <g
   id="g882"
   transform="matrix(50,0,0,50,601.056,759.954)">
                            <path
   inkscape:connector-curvature="0"
   id="path880"
   style="fill:#676c72;fill-rule:nonzero"
   d="M 0.298,0.016 C 0.248,0.016 0.203,0.004 0.163,-0.02 0.123,-0.044 0.092,-0.077 0.07,-0.118 0.047,-0.159 0.036,-0.205 0.036,-0.255 c 0,-0.05 0.011,-0.096 0.034,-0.137 0.022,-0.041 0.053,-0.074 0.093,-0.098 0.04,-0.024 0.085,-0.036 0.135,-0.036 0.05,0 0.095,0.012 0.135,0.036 0.04,0.024 0.071,0.057 0.094,0.098 0.022,0.041 0.033,0.087 0.033,0.137 0,0.05 -0.011,0.096 -0.033,0.137 C 0.504,-0.077 0.473,-0.044 0.433,-0.02 0.393,0.004 0.348,0.016 0.298,0.016 Z m 0,-0.077 c 0.031,0 0.061,-0.008 0.088,-0.024 C 0.413,-0.1 0.434,-0.123 0.451,-0.152 0.467,-0.181 0.475,-0.216 0.475,-0.255 0.475,-0.294 0.467,-0.329 0.451,-0.358 0.434,-0.387 0.413,-0.41 0.386,-0.426 0.359,-0.441 0.329,-0.449 0.298,-0.449 c -0.031,0 -0.061,0.008 -0.088,0.023 -0.027,0.016 -0.049,0.039 -0.065,0.068 -0.017,0.029 -0.025,0.064 -0.025,0.103 0,0.039 0.008,0.074 0.025,0.103 0.016,0.029 0.038,0.052 0.065,0.067 0.027,0.016 0.057,0.024 0.088,0.024 z" />

                        </g>

                        <g
   id="g886"
   transform="matrix(50,0,0,50,630.856,759.954)">
                            <path
   inkscape:connector-curvature="0"
   id="path884"
   style="fill:#676c72;fill-rule:nonzero"
   d="M 0.287,0.232 C 0.227,0.232 0.178,0.218 0.139,0.19 0.099,0.162 0.073,0.128 0.06,0.089 L 0.137,0.056 C 0.148,0.085 0.167,0.109 0.194,0.128 0.22,0.146 0.251,0.155 0.287,0.155 0.34,0.155 0.381,0.14 0.41,0.109 0.439,0.078 0.453,0.035 0.453,-0.021 V -0.078 H 0.449 C 0.432,-0.052 0.409,-0.031 0.379,-0.015 0.348,0.002 0.314,0.01 0.275,0.01 0.231,0.01 0.191,-0.001 0.155,-0.024 0.118,-0.047 0.089,-0.078 0.068,-0.119 0.047,-0.16 0.036,-0.206 0.036,-0.258 c 0,-0.051 0.011,-0.098 0.032,-0.139 0.021,-0.041 0.05,-0.072 0.087,-0.095 0.036,-0.023 0.076,-0.034 0.12,-0.034 0.039,0 0.073,0.008 0.104,0.024 0.03,0.017 0.053,0.038 0.07,0.065 H 0.453 V -0.51 h 0.081 v 0.49 C 0.534,0.062 0.511,0.125 0.466,0.168 0.421,0.211 0.361,0.232 0.287,0.232 Z m 0,-0.299 c 0.031,0 0.058,-0.008 0.084,-0.023 0.025,-0.015 0.045,-0.037 0.06,-0.066 0.015,-0.029 0.022,-0.063 0.022,-0.102 0,-0.04 -0.007,-0.074 -0.022,-0.103 C 0.416,-0.39 0.396,-0.412 0.371,-0.427 0.345,-0.442 0.318,-0.449 0.287,-0.449 c -0.031,0 -0.059,0.008 -0.084,0.023 -0.025,0.015 -0.045,0.037 -0.06,0.066 -0.015,0.029 -0.023,0.063 -0.023,0.102 0,0.039 0.008,0.073 0.023,0.102 0.015,0.029 0.035,0.051 0.06,0.066 0.025,0.015 0.053,0.023 0.084,0.023 z" />

                        </g>

                        <g
   id="g890"
   transform="matrix(50,0,0,50,661.206,759.954)">
                            <path
   inkscape:connector-curvature="0"
   id="path888"
   style="fill:#676c72;fill-rule:nonzero"
   d="M 0.113,-0.604 C 0.096,-0.604 0.082,-0.61 0.07,-0.622 0.058,-0.634 0.052,-0.648 0.052,-0.665 c 0,-0.017 0.006,-0.031 0.018,-0.043 0.012,-0.011 0.026,-0.017 0.043,-0.017 0.017,0 0.031,0.006 0.043,0.017 0.012,0.012 0.018,0.026 0.018,0.043 0,0.017 -0.006,0.031 -0.017,0.043 -0.012,0.012 -0.027,0.018 -0.044,0.018 z m -0.098,0.83 c -0.016,0 -0.031,-0.002 -0.045,-0.007 V 0.138 c 0.005,0.003 0.012,0.006 0.02,0.008 0.008,0.002 0.015,0.003 0.022,0.003 0.021,0 0.036,-0.007 0.045,-0.019 C 0.066,0.117 0.071,0.097 0.071,0.072 V -0.51 h 0.084 v 0.582 c 0,0.051 -0.012,0.09 -0.037,0.116 C 0.093,0.213 0.059,0.226 0.015,0.226 Z" />

                        </g>

                        <g
   id="g894"
   transform="matrix(50,0,0,50,672.256,759.954)">
                            <path
   inkscape:connector-curvature="0"
   id="path892"
   style="fill:#676c72;fill-rule:nonzero"
   d="M 0.226,0.016 C 0.189,0.016 0.155,0.009 0.126,-0.006 0.097,-0.021 0.074,-0.041 0.058,-0.067 0.042,-0.092 0.034,-0.121 0.034,-0.154 c 0,-0.054 0.02,-0.096 0.061,-0.127 0.041,-0.03 0.092,-0.045 0.154,-0.045 0.031,0 0.059,0.003 0.086,0.01 0.026,0.007 0.046,0.014 0.06,0.023 v -0.031 c 0,-0.038 -0.013,-0.069 -0.04,-0.092 -0.027,-0.023 -0.06,-0.034 -0.101,-0.034 -0.029,0 -0.055,0.006 -0.079,0.018 -0.024,0.013 -0.043,0.03 -0.057,0.052 L 0.054,-0.428 c 0.02,-0.031 0.047,-0.055 0.083,-0.072 0.034,-0.017 0.073,-0.026 0.116,-0.026 0.069,0 0.124,0.018 0.164,0.054 0.039,0.037 0.059,0.086 0.059,0.149 V 0 H 0.395 V -0.073 H 0.391 C 0.376,-0.048 0.354,-0.027 0.325,-0.01 0.296,0.007 0.263,0.016 0.226,0.016 Z m 0.008,-0.075 c 0.029,0 0.055,-0.007 0.08,-0.022 C 0.339,-0.096 0.358,-0.115 0.373,-0.14 0.388,-0.165 0.395,-0.192 0.395,-0.221 0.379,-0.232 0.359,-0.24 0.336,-0.247 0.313,-0.254 0.288,-0.257 0.262,-0.257 c -0.047,0 -0.082,0.01 -0.105,0.029 -0.024,0.019 -0.036,0.044 -0.036,0.075 0,0.028 0.011,0.051 0.032,0.068 0.021,0.017 0.048,0.026 0.081,0.026 z" />

                        </g>

                        <g
   id="g898"
   transform="matrix(50,0,0,50,698.806,759.954)">
                            <path
   inkscape:connector-curvature="0"
   id="path896"
   style="fill:#676c72;fill-rule:nonzero"
   d="m 0.063,-0.716 h 0.085 v 0.45 l 0.24,-0.244 h 0.108 v 0.004 l -0.2,0.202 0.205,0.3 V 0 H 0.4 L 0.236,-0.245 0.148,-0.157 V 0 H 0.063 Z" />

                        </g>

                        <g
   id="g902"
   transform="matrix(50,0,0,50,723.556,759.954)">
                            <path
   inkscape:connector-curvature="0"
   id="path900"
   style="fill:#676c72;fill-rule:nonzero"
   d="M 0.226,0.016 C 0.189,0.016 0.155,0.009 0.126,-0.006 0.097,-0.021 0.074,-0.041 0.058,-0.067 0.042,-0.092 0.034,-0.121 0.034,-0.154 c 0,-0.054 0.02,-0.096 0.061,-0.127 0.041,-0.03 0.092,-0.045 0.154,-0.045 0.031,0 0.059,0.003 0.086,0.01 0.026,0.007 0.046,0.014 0.06,0.023 v -0.031 c 0,-0.038 -0.013,-0.069 -0.04,-0.092 -0.027,-0.023 -0.06,-0.034 -0.101,-0.034 -0.029,0 -0.055,0.006 -0.079,0.018 -0.024,0.013 -0.043,0.03 -0.057,0.052 L 0.054,-0.428 c 0.02,-0.031 0.047,-0.055 0.083,-0.072 0.034,-0.017 0.073,-0.026 0.116,-0.026 0.069,0 0.124,0.018 0.164,0.054 0.039,0.037 0.059,0.086 0.059,0.149 V 0 H 0.395 V -0.073 H 0.391 C 0.376,-0.048 0.354,-0.027 0.325,-0.01 0.296,0.007 0.263,0.016 0.226,0.016 Z m 0.008,-0.075 c 0.029,0 0.055,-0.007 0.08,-0.022 C 0.339,-0.096 0.358,-0.115 0.373,-0.14 0.388,-0.165 0.395,-0.192 0.395,-0.221 0.379,-0.232 0.359,-0.24 0.336,-0.247 0.313,-0.254 0.288,-0.257 0.262,-0.257 c -0.047,0 -0.082,0.01 -0.105,0.029 -0.024,0.019 -0.036,0.044 -0.036,0.075 0,0.028 0.011,0.051 0.032,0.068 0.021,0.017 0.048,0.026 0.081,0.026 z" />

                        </g>

                        <g
   id="g906"
   transform="matrix(50,0,0,50,750.106,759.954)">
                            <path
   inkscape:connector-curvature="0"
   id="path904"
   style="fill:#676c72;fill-rule:nonzero"
   d="m 0.063,-0.51 h 0.081 v 0.081 h 0.004 c 0.012,-0.03 0.032,-0.053 0.061,-0.07 0.029,-0.017 0.06,-0.025 0.094,-0.025 0.015,0 0.027,0.001 0.037,0.003 v 0.087 C 0.329,-0.437 0.313,-0.438 0.294,-0.438 c -0.043,0 -0.078,0.014 -0.105,0.043 -0.027,0.029 -0.041,0.066 -0.041,0.112 V 0 H 0.063 Z M 0.638,0.008 C 0.617,0.008 0.598,0.005 0.581,-0.002 0.563,-0.009 0.548,-0.018 0.536,-0.029 0.523,-0.042 0.513,-0.056 0.506,-0.073 0.499,-0.09 0.496,-0.11 0.496,-0.134 V -0.433 H 0.407 V -0.51 h 0.089 v -0.144 h 0.085 v 0.144 h 0.124 v 0.077 H 0.581 v 0.278 c 0,0.028 0.005,0.049 0.016,0.062 0.013,0.015 0.031,0.022 0.055,0.022 0.019,0 0.038,-0.006 0.056,-0.017 v 0.083 C 0.698,0 0.688,0.003 0.678,0.005 0.667,0.007 0.654,0.008 0.638,0.008 Z" />

                        </g>

                        <g
   id="g910"
   transform="matrix(50,0,0,50,786.856,759.954)">
                            <path
   inkscape:connector-curvature="0"
   id="path908"
   style="fill:#676c72;fill-rule:nonzero"
   d="M 0.226,0.016 C 0.189,0.016 0.155,0.009 0.126,-0.006 0.097,-0.021 0.074,-0.041 0.058,-0.067 0.042,-0.092 0.034,-0.121 0.034,-0.154 c 0,-0.054 0.02,-0.096 0.061,-0.127 0.041,-0.03 0.092,-0.045 0.154,-0.045 0.031,0 0.059,0.003 0.086,0.01 0.026,0.007 0.046,0.014 0.06,0.023 v -0.031 c 0,-0.038 -0.013,-0.069 -0.04,-0.092 -0.027,-0.023 -0.06,-0.034 -0.101,-0.034 -0.029,0 -0.055,0.006 -0.079,0.018 -0.024,0.013 -0.043,0.03 -0.057,0.052 L 0.054,-0.428 c 0.02,-0.031 0.047,-0.055 0.083,-0.072 0.034,-0.017 0.073,-0.026 0.116,-0.026 0.069,0 0.124,0.018 0.164,0.054 0.039,0.037 0.059,0.086 0.059,0.149 V 0 H 0.395 V -0.073 H 0.391 C 0.376,-0.048 0.354,-0.027 0.325,-0.01 0.296,0.007 0.263,0.016 0.226,0.016 Z m 0.008,-0.075 c 0.029,0 0.055,-0.007 0.08,-0.022 C 0.339,-0.096 0.358,-0.115 0.373,-0.14 0.388,-0.165 0.395,-0.192 0.395,-0.221 0.379,-0.232 0.359,-0.24 0.336,-0.247 0.313,-0.254 0.288,-0.257 0.262,-0.257 c -0.047,0 -0.082,0.01 -0.105,0.029 -0.024,0.019 -0.036,0.044 -0.036,0.075 0,0.028 0.011,0.051 0.032,0.068 0.021,0.017 0.048,0.026 0.081,0.026 z" />

                        </g>

                    </g>

                </g>

            </g>

        <g
   transform="translate(0,3.9525513)"
   style="font-style:normal;font-weight:normal;font-size:53.3333px;line-height:1.25;font-family:sans-serif;fill:#676c72;fill-opacity:1;stroke:none"
   id="text931"
   aria-label="Something big is coming!">
  <path
     inkscape:connector-curvature="0"
     id="path933"
     style="font-style:normal;font-variant:normal;font-weight:normal;font-stretch:normal;font-family:'Google Sans';-inkscape-font-specification:'Google Sans';fill:#676c72;fill-opacity:1"
     d="m 213.96749,765.67426 q -4.48,0 -8.21333,-2.72 -3.73333,-2.72 -5.12,-7.62666 l 4.32,-1.76 q 0.90667,3.41333 3.36,5.59999 2.45333,2.18667 5.76,2.18667 3.30666,0 5.59999,-1.76 2.29333,-1.81333 2.29333,-4.90666 0,-2.66667 -1.97333,-4.37334 -1.92,-1.75999 -6.34666,-3.25333 l -2.4,-0.85333 q -4.05333,-1.44 -6.61333,-3.78666 -2.56,-2.34667 -2.56,-6.50667 0,-2.71999 1.49334,-5.01333 1.49333,-2.34666 4.15999,-3.73333 2.66667,-1.38666 5.97333,-1.38666 3.30667,0 5.76,1.22666 2.45333,1.22667 3.89333,2.98667 1.49333,1.76 2.08,3.46666 l -4.26667,1.81333 q -0.53333,-1.97333 -2.45333,-3.57333 -1.86666,-1.6 -4.95999,-1.6 -2.93334,0 -5.01333,1.65334 -2.08,1.65333 -2.08,4.15999 0,2.24 1.76,3.68 1.75999,1.38667 5.33333,2.61333 l 2.50666,0.85334 q 4.85333,1.75999 7.57333,4.42666 2.72,2.61333 2.72,7.14666 0,3.68 -1.92,6.18667 -1.86667,2.50666 -4.74666,3.67999 -2.88,1.17334 -5.92,1.17334 z" />
  <path
     inkscape:connector-curvature="0"
     id="path935"
     style="font-style:normal;font-variant:normal;font-weight:normal;font-stretch:normal;font-family:'Google Sans';-inkscape-font-specification:'Google Sans';fill:#676c72;fill-opacity:1"
     d="m 244.8233,765.67426 q -3.99999,0 -7.19999,-1.92 -3.2,-1.92 -5.01333,-5.22667 -1.76,-3.30666 -1.76,-7.30666 0,-4 1.76,-7.30666 1.81333,-3.30667 5.01333,-5.22666 3.2,-1.92 7.19999,-1.92 4,0 7.2,1.92 3.2,1.91999 4.96,5.22666 1.81333,3.30666 1.81333,7.30666 0,4 -1.81333,7.30666 -1.76,3.30667 -4.96,5.22667 -3.2,1.92 -7.2,1.92 z m 0,-4.10667 q 2.50667,0 4.64,-1.22666 2.18667,-1.28 3.46667,-3.62667 1.33333,-2.34666 1.33333,-5.49333 0,-3.14666 -1.33333,-5.49333 -1.28,-2.34666 -3.46667,-3.57333 -2.13333,-1.28 -4.64,-1.28 -2.50666,0 -4.69333,1.28 -2.18666,1.22667 -3.52,3.57333 -1.27999,2.34667 -1.27999,5.49333 0,3.14667 1.27999,5.49333 1.33334,2.34667 3.52,3.62667 2.18667,1.22666 4.69333,1.22666 z" />
  <path
     inkscape:connector-curvature="0"
     id="path937"
     style="font-style:normal;font-variant:normal;font-weight:normal;font-stretch:normal;font-family:'Google Sans';-inkscape-font-specification:'Google Sans';fill:#676c72;fill-opacity:1"
     d="m 263.53996,737.62094 h 4.32 v 4 h 0.21333 q 1.17333,-2.08 3.52,-3.46667 2.34666,-1.38666 4.96,-1.38666 2.98666,0 5.17333,1.44 2.23999,1.43999 3.19999,3.83999 1.44,-2.4 3.78667,-3.83999 2.4,-1.44 5.54666,-1.44 4.69333,0 7.04,2.87999 2.4,2.82667 2.4,7.73333 v 17.43999 h -4.48 v -16.74665 q 0,-3.78667 -1.54667,-5.49333 -1.54666,-1.70667 -4.58666,-1.70667 -2.02667,0 -3.68,1.17333 -1.65333,1.17334 -2.61333,3.14667 -0.90667,1.97333 -0.90667,4.26666 v 15.35999 h -4.53333 V 748.1276 q 0,-3.84 -1.54666,-5.54666 -1.54667,-1.70667 -4.53333,-1.70667 -2.02667,0 -3.68,1.22667 -1.65333,1.17333 -2.61333,3.19999 -0.90667,1.97334 -0.90667,4.26667 v 15.25332 h -4.53333 z" />
  <path
     inkscape:connector-curvature="0"
     id="path939"
     style="font-style:normal;font-variant:normal;font-weight:normal;font-stretch:normal;font-family:'Google Sans';-inkscape-font-specification:'Google Sans';fill:#676c72;fill-opacity:1"
     d="m 322.31325,765.67426 q -3.89333,0 -6.98666,-1.86667 -3.09333,-1.86667 -4.85333,-5.12 -1.70667,-3.30666 -1.70667,-7.41333 0,-3.94666 1.6,-7.25332 1.65334,-3.30667 4.64,-5.28 2.98667,-1.97333 6.93333,-1.97333 4,0 6.93333,1.81333 2.93333,1.76 4.48,4.90666 1.6,3.14667 1.6,7.2 0,0.8 -0.16,1.38666 h -21.49332 q 0.16,3.09334 1.49333,5.22667 1.33333,2.13333 3.36,3.2 2.07999,1.06666 4.31999,1.06666 5.22667,0 8.05333,-4.90666 l 3.84,1.86666 q -1.76,3.30667 -4.8,5.22667 -2.98666,1.92 -7.25333,1.92 z m 7.84,-17.33333 q -0.10667,-1.70666 -0.96,-3.41333 -0.85333,-1.70666 -2.72,-2.88 -1.81333,-1.17333 -4.58666,-1.17333 -3.2,0 -5.44,2.08 -2.18667,2.02666 -2.88,5.38666 z" />
  <path
     inkscape:connector-curvature="0"
     id="path941"
     style="font-style:normal;font-variant:normal;font-weight:normal;font-stretch:normal;font-family:'Google Sans';-inkscape-font-specification:'Google Sans';fill:#676c72;fill-opacity:1"
     d="m 349.82657,765.24759 q -1.65333,0 -3.09333,-0.53333 -1.38667,-0.53334 -2.34667,-1.44 -1.06666,-1.01334 -1.6,-2.34667 -0.53333,-1.33333 -0.53333,-3.25333 V 741.7276 h -4.74666 v -4.10666 h 4.74666 v -7.68 h 4.53333 v 7.68 h 6.61333 v 4.10666 h -6.61333 v 14.82666 q 0,2.24 0.85333,3.30667 1.01334,1.17333 2.93334,1.17333 1.54666,0 2.98666,-0.90667 v 4.42667 q -0.8,0.37333 -1.65333,0.53333 -0.8,0.16 -2.08,0.16 z" />
  <path
     inkscape:connector-curvature="0"
     id="path943"
     style="font-style:normal;font-variant:normal;font-weight:normal;font-stretch:normal;font-family:'Google Sans';-inkscape-font-specification:'Google Sans';fill:#676c72;fill-opacity:1"
     d="m 359.1649,726.63428 h 4.53333 v 11.25333 l -0.21333,3.73333 h 0.21333 q 1.12,-2.08 3.52,-3.46667 2.45333,-1.38666 5.33333,-1.38666 4.95999,0 7.57333,2.93333 2.61333,2.88 2.61333,7.67999 v 17.43999 h -4.53333 v -16.74665 q 0,-3.68 -1.86667,-5.44 -1.86666,-1.76 -4.85333,-1.76 -2.13333,0 -3.94666,1.28 -1.76,1.28 -2.82667,3.30666 -1.01333,2.02667 -1.01333,4.21334 v 15.14665 h -4.53333 z" />
  <path
     inkscape:connector-curvature="0"
     id="path945"
     style="font-style:normal;font-variant:normal;font-weight:normal;font-stretch:normal;font-family:'Google Sans';-inkscape-font-specification:'Google Sans';fill:#676c72;fill-opacity:1"
     d="m 391.93571,732.60761 q -1.33334,0 -2.29334,-0.96 -0.96,-0.96 -0.96,-2.29333 0,-1.33334 0.96,-2.24 0.96,-0.96 2.29334,-0.96 1.33333,0 2.29333,0.96 0.96,0.90666 0.96,2.24 0,1.33333 -0.96,2.29333 -0.90667,0.96 -2.29333,0.96 z m -2.24,5.01333 h 4.47999 v 27.19998 h -4.47999 z" />
  <path
     inkscape:connector-curvature="0"
     id="path947"
     style="font-style:normal;font-variant:normal;font-weight:normal;font-stretch:normal;font-family:'Google Sans';-inkscape-font-specification:'Google Sans';fill:#676c72;fill-opacity:1"
     d="m 401.35237,737.62094 h 4.32 v 4 h 0.21333 q 1.12,-2.02667 3.57333,-3.41333 2.45333,-1.44 5.22666,-1.44 4.90667,0 7.46667,2.87999 2.61333,2.82667 2.61333,7.73333 v 17.43999 h -4.53333 v -16.74665 q 0,-3.78667 -1.81333,-5.49333 -1.81334,-1.70667 -4.96,-1.70667 -2.18667,0 -3.94667,1.22667 -1.70666,1.22666 -2.66666,3.25333 -0.96,1.97333 -0.96,4.16 v 15.30665 h -4.53333 z" />
  <path
     inkscape:connector-curvature="0"
     id="path949"
     style="font-style:normal;font-variant:normal;font-weight:normal;font-stretch:normal;font-family:'Google Sans';-inkscape-font-specification:'Google Sans';fill:#676c72;fill-opacity:1"
     d="m 442.88236,777.19425 q -4.8,0 -7.94667,-2.24 -3.09333,-2.24 -4.15999,-5.38666 l 4.10666,-1.76 q 0.90667,2.34666 2.98667,3.78666 2.13333,1.49333 5.01333,1.49333 4.21333,0 6.50666,-2.45333 2.34666,-2.45333 2.34666,-6.93333 v -3.03999 h -0.21333 q -1.33333,2.07999 -3.78666,3.41333 -2.4,1.28 -5.49333,1.28 -3.52,0 -6.45333,-1.81334 -2.88,-1.81333 -4.58667,-5.06666 -1.70666,-3.25333 -1.70666,-7.41333 0,-4.10666 1.70666,-7.35999 1.70667,-3.30667 4.58667,-5.12 2.93333,-1.81333 6.45333,-1.81333 3.09333,0 5.49333,1.33333 2.45333,1.28 3.78666,3.41333 h 0.21333 v -3.89333 h 4.32 v 26.13332 q 0,6.55999 -3.62666,9.97332 -3.62667,3.46667 -9.54666,3.46667 z m 0,-15.94666 q 2.45333,0 4.42666,-1.22666 2.02667,-1.22667 3.2,-3.52 1.22666,-2.29333 1.22666,-5.44 0,-3.2 -1.22666,-5.49333 -1.17333,-2.29333 -3.2,-3.46666 -1.97333,-1.22667 -4.42666,-1.22667 -2.45334,0 -4.48,1.22667 -2.02667,1.22666 -3.25333,3.51999 -1.17333,2.29334 -1.17333,5.44 0,3.14667 1.17333,5.49333 1.22666,2.29333 3.25333,3.52 2.02666,1.17333 4.48,1.17333 z" />
  <path
     inkscape:connector-curvature="0"
     id="path951"
     style="font-style:normal;font-variant:normal;font-weight:normal;font-stretch:normal;font-family:'Google Sans';-inkscape-font-specification:'Google Sans';fill:#676c72;fill-opacity:1"
     d="m 489.01983,765.67426 q -3.09333,0 -5.59999,-1.38667 -2.45333,-1.44 -3.68,-3.46666 h -0.21333 v 3.99999 h -4.32 v -38.18664 h 4.53333 v 11.25333 l -0.21333,3.78666 h 0.21333 q 1.22667,-2.08 3.68,-3.46666 2.50666,-1.44 5.59999,-1.44 3.62667,0 6.61333,1.86666 2.98667,1.86667 4.69333,5.17333 1.70667,3.30667 1.70667,7.41333 0,4.16 -1.70667,7.46666 -1.70666,3.25333 -4.69333,5.12 -2.98666,1.86667 -6.61333,1.86667 z m -0.53333,-4.10667 q 2.34667,0 4.42667,-1.28 2.07999,-1.28 3.30666,-3.62666 1.28,-2.4 1.28,-5.44 0,-3.04 -1.28,-5.38666 -1.22667,-2.4 -3.30666,-3.68 -2.08,-1.28 -4.42667,-1.28 -2.34666,0 -4.42666,1.28 -2.08,1.28 -3.30667,3.62666 -1.22666,2.34667 -1.22666,5.44 0,3.09333 1.22666,5.44 1.22667,2.34666 3.30667,3.62666 2.08,1.28 4.42666,1.28 z" />
  <path
     inkscape:connector-curvature="0"
     id="path953"
     style="font-style:normal;font-variant:normal;font-weight:normal;font-stretch:normal;font-family:'Google Sans';-inkscape-font-specification:'Google Sans';fill:#676c72;fill-opacity:1"
     d="m 509.64399,732.60761 q -1.33333,0 -2.29333,-0.96 -0.96,-0.96 -0.96,-2.29333 0,-1.33334 0.96,-2.24 0.96,-0.96 2.29333,-0.96 1.33333,0 2.29333,0.96 0.96,0.90666 0.96,2.24 0,1.33333 -0.96,2.29333 -0.90667,0.96 -2.29333,0.96 z m -2.24,5.01333 h 4.48 v 27.19998 h -4.48 z" />
  <path
     inkscape:connector-curvature="0"
     id="path955"
     style="font-style:normal;font-variant:normal;font-weight:normal;font-stretch:normal;font-family:'Google Sans';-inkscape-font-specification:'Google Sans';fill:#676c72;fill-opacity:1"
     d="m 530.6948,777.19425 q -4.8,0 -7.94667,-2.24 -3.09333,-2.24 -4.15999,-5.38666 l 4.10666,-1.76 q 0.90667,2.34666 2.98667,3.78666 2.13333,1.49333 5.01333,1.49333 4.21333,0 6.50666,-2.45333 2.34666,-2.45333 2.34666,-6.93333 v -3.03999 h -0.21333 q -1.33333,2.07999 -3.78666,3.41333 -2.4,1.28 -5.49333,1.28 -3.52,0 -6.45333,-1.81334 -2.88,-1.81333 -4.58667,-5.06666 -1.70666,-3.25333 -1.70666,-7.41333 0,-4.10666 1.70666,-7.35999 1.70667,-3.30667 4.58667,-5.12 2.93333,-1.81333 6.45333,-1.81333 3.09333,0 5.49333,1.33333 2.45333,1.28 3.78666,3.41333 h 0.21333 v -3.89333 h 4.32 v 26.13332 q 0,6.55999 -3.62666,9.97332 -3.62667,3.46667 -9.54666,3.46667 z m 0,-15.94666 q 2.45333,0 4.42666,-1.22666 2.02666,-1.22667 3.2,-3.52 1.22666,-2.29333 1.22666,-5.44 0,-3.2 -1.22666,-5.49333 -1.17334,-2.29333 -3.2,-3.46666 -1.97333,-1.22667 -4.42666,-1.22667 -2.45334,0 -4.48,1.22667 -2.02667,1.22666 -3.25333,3.51999 -1.17334,2.29334 -1.17334,5.44 0,3.14667 1.17334,5.49333 1.22666,2.29333 3.25333,3.52 2.02666,1.17333 4.48,1.17333 z" />
  <path
     inkscape:connector-curvature="0"
     id="path957"
     style="font-style:normal;font-variant:normal;font-weight:normal;font-stretch:normal;font-family:'Google Sans';-inkscape-font-specification:'Google Sans';fill:#676c72;fill-opacity:1"
     d="m 565.68561,732.60761 q -1.33333,0 -2.29333,-0.96 -0.96,-0.96 -0.96,-2.29333 0,-1.33334 0.96,-2.24 0.96,-0.96 2.29333,-0.96 1.33334,0 2.29334,0.96 0.96,0.90666 0.96,2.24 0,1.33333 -0.96,2.29333 -0.90667,0.96 -2.29334,0.96 z m -2.23999,5.01333 h 4.47999 v 27.19998 h -4.47999 z" />
  <path
     inkscape:connector-curvature="0"
     id="path959"
     style="font-style:normal;font-variant:normal;font-weight:normal;font-stretch:normal;font-family:'Google Sans';-inkscape-font-specification:'Google Sans';fill:#676c72;fill-opacity:1"
     d="m 584.59559,765.67426 q -4.37333,0 -7.30666,-2.02667 -2.93333,-2.08 -4.16,-5.28 l 4.05333,-1.81333 q 1.01333,2.45333 2.98667,3.78667 2.02666,1.33333 4.42666,1.33333 2.56,0 4.37333,-1.01333 1.81333,-1.06667 1.81333,-2.98667 0,-1.70667 -1.44,-2.72 -1.44,-1.06666 -4.53333,-1.81333 l -3.30666,-0.85333 q -3.25333,-0.8 -5.33333,-2.72 -2.08,-1.92 -2.08,-4.96 0,-2.34666 1.38666,-4.10666 1.44,-1.81333 3.78667,-2.77333 2.34666,-0.96 5.06666,-0.96 3.57333,0 6.34667,1.54666 2.82666,1.54667 3.99999,4.32 l -3.94666,1.81333 q -1.81333,-3.62666 -6.45333,-3.62666 -2.24,0 -3.94666,1.06666 -1.65334,1.01334 -1.65334,2.61333 0,1.49334 1.17334,2.45334 1.17333,0.90666 3.51999,1.49333 l 3.94667,1.01333 q 4,1.01333 6.02666,3.04 2.02667,1.97333 2.02667,4.85333 0,2.50667 -1.44,4.42666 -1.44,1.86667 -3.89333,2.88 -2.45334,1.01334 -5.44,1.01334 z" />
  <path
     inkscape:connector-curvature="0"
     id="path961"
     style="font-style:normal;font-variant:normal;font-weight:normal;font-stretch:normal;font-family:'Google Sans';-inkscape-font-specification:'Google Sans';fill:#676c72;fill-opacity:1"
     d="m 625.02641,765.67426 q -3.94666,0 -7.09333,-1.86667 -3.14666,-1.92 -4.90666,-5.17333 -1.76,-3.30666 -1.76,-7.41333 0,-4.10666 1.76,-7.41333 1.76,-3.30666 4.90666,-5.17333 3.14667,-1.86666 7.09333,-1.86666 4.42666,0 7.41333,2.07999 3.04,2.02667 4.32,5.44 l -4.10667,1.70667 q -1.01333,-2.50667 -3.04,-3.78667 -1.97333,-1.33333 -4.79999,-1.33333 -2.4,0 -4.48,1.33333 -2.08,1.28 -3.36,3.62667 -1.22666,2.34666 -1.22666,5.38666 0,3.04 1.22666,5.38666 1.28,2.34667 3.36,3.68 2.08,1.28 4.48,1.28 2.88,0 4.95999,-1.33333 2.08,-1.33333 3.09334,-3.78667 l 4.05333,1.70667 q -1.38667,3.36 -4.48,5.44 -3.04,2.08 -7.41333,2.08 z" />
  <path
     inkscape:connector-curvature="0"
     id="path963"
     style="font-style:normal;font-variant:normal;font-weight:normal;font-stretch:normal;font-family:'Google Sans';-inkscape-font-specification:'Google Sans';fill:#676c72;fill-opacity:1"
     d="m 654.0939,765.67426 q -4,0 -7.2,-1.92 -3.19999,-1.92 -5.01333,-5.22667 -1.75999,-3.30666 -1.75999,-7.30666 0,-4 1.75999,-7.30666 1.81334,-3.30667 5.01333,-5.22666 3.2,-1.92 7.2,-1.92 4,0 7.2,1.92 3.19999,1.91999 4.95999,5.22666 1.81334,3.30666 1.81334,7.30666 0,4 -1.81334,7.30666 -1.76,3.30667 -4.95999,5.22667 -3.2,1.92 -7.2,1.92 z m 0,-4.10667 q 2.50667,0 4.64,-1.22666 2.18666,-1.28 3.46666,-3.62667 1.33334,-2.34666 1.33334,-5.49333 0,-3.14666 -1.33334,-5.49333 -1.28,-2.34666 -3.46666,-3.57333 -2.13333,-1.28 -4.64,-1.28 -2.50666,0 -4.69333,1.28 -2.18667,1.22667 -3.52,3.57333 -1.28,2.34667 -1.28,5.49333 0,3.14667 1.28,5.49333 1.33333,2.34667 3.52,3.62667 2.18667,1.22666 4.69333,1.22666 z" />
  <path
     inkscape:connector-curvature="0"
     id="path965"
     style="font-style:normal;font-variant:normal;font-weight:normal;font-stretch:normal;font-family:'Google Sans';-inkscape-font-specification:'Google Sans';fill:#676c72;fill-opacity:1"
     d="m 672.81054,737.62094 h 4.32 v 4 h 0.21333 q 1.17334,-2.08 3.52,-3.46667 2.34667,-1.38666 4.96,-1.38666 2.98666,0 5.17333,1.44 2.24,1.43999 3.2,3.83999 1.44,-2.4 3.78666,-3.83999 2.4,-1.44 5.54667,-1.44 4.69333,0 7.03999,2.87999 2.4,2.82667 2.4,7.73333 v 17.43999 h -4.48 v -16.74665 q 0,-3.78667 -1.54666,-5.49333 -1.54667,-1.70667 -4.58667,-1.70667 -2.02666,0 -3.67999,1.17333 -1.65334,1.17334 -2.61334,3.14667 -0.90666,1.97333 -0.90666,4.26666 v 15.35999 h -4.53333 V 748.1276 q 0,-3.84 -1.54667,-5.54666 -1.54666,-1.70667 -4.53333,-1.70667 -2.02666,0 -3.68,1.22667 -1.65333,1.17333 -2.61333,3.19999 -0.90667,1.97334 -0.90667,4.26667 v 15.25332 h -4.53333 z" />
  <path
     inkscape:connector-curvature="0"
     id="path967"
     style="font-style:normal;font-variant:normal;font-weight:normal;font-stretch:normal;font-family:'Google Sans';-inkscape-font-specification:'Google Sans';fill:#676c72;fill-opacity:1"
     d="m 722.14384,732.60761 q -1.33334,0 -2.29334,-0.96 -0.96,-0.96 -0.96,-2.29333 0,-1.33334 0.96,-2.24 0.96,-0.96 2.29334,-0.96 1.33333,0 2.29333,0.96 0.96,0.90666 0.96,2.24 0,1.33333 -0.96,2.29333 -0.90667,0.96 -2.29333,0.96 z m -2.24,5.01333 h 4.47999 v 27.19998 h -4.47999 z" />
  <path
     inkscape:connector-curvature="0"
     id="path969"
     style="font-style:normal;font-variant:normal;font-weight:normal;font-stretch:normal;font-family:'Google Sans';-inkscape-font-specification:'Google Sans';fill:#676c72;fill-opacity:1"
     d="m 731.56048,737.62094 h 4.32 v 4 h 0.21333 q 1.12,-2.02667 3.57334,-3.41333 2.45333,-1.44 5.22666,-1.44 4.90666,0 7.46666,2.87999 2.61333,2.82667 2.61333,7.73333 v 17.43999 h -4.53333 v -16.74665 q 0,-3.78667 -1.81333,-5.49333 -1.81333,-1.70667 -4.96,-1.70667 -2.18666,0 -3.94666,1.22667 -1.70667,1.22666 -2.66667,3.25333 -0.96,1.97333 -0.96,4.16 v 15.30665 h -4.53333 z" />
  <path
     inkscape:connector-curvature="0"
     id="path971"
     style="font-style:normal;font-variant:normal;font-weight:normal;font-stretch:normal;font-family:'Google Sans';-inkscape-font-specification:'Google Sans';fill:#676c72;fill-opacity:1"
     d="m 773.09046,777.19425 q -4.8,0 -7.94667,-2.24 -3.09333,-2.24 -4.15999,-5.38666 l 4.10666,-1.76 q 0.90667,2.34666 2.98667,3.78666 2.13333,1.49333 5.01333,1.49333 4.21333,0 6.50666,-2.45333 2.34666,-2.45333 2.34666,-6.93333 v -3.03999 h -0.21333 q -1.33333,2.07999 -3.78666,3.41333 -2.4,1.28 -5.49333,1.28 -3.52,0 -6.45333,-1.81334 -2.88,-1.81333 -4.58667,-5.06666 -1.70666,-3.25333 -1.70666,-7.41333 0,-4.10666 1.70666,-7.35999 1.70667,-3.30667 4.58667,-5.12 2.93333,-1.81333 6.45333,-1.81333 3.09333,0 5.49333,1.33333 2.45333,1.28 3.78666,3.41333 h 0.21333 v -3.89333 h 4.32 v 26.13332 q 0,6.55999 -3.62666,9.97332 -3.62667,3.46667 -9.54666,3.46667 z m 0,-15.94666 q 2.45333,0 4.42666,-1.22666 2.02667,-1.22667 3.2,-3.52 1.22666,-2.29333 1.22666,-5.44 0,-3.2 -1.22666,-5.49333 -1.17333,-2.29333 -3.2,-3.46666 -1.97333,-1.22667 -4.42666,-1.22667 -2.45334,0 -4.48,1.22667 -2.02667,1.22666 -3.25333,3.51999 -1.17334,2.29334 -1.17334,5.44 0,3.14667 1.17334,5.49333 1.22666,2.29333 3.25333,3.52 2.02666,1.17333 4.48,1.17333 z" />
  <path
     inkscape:connector-curvature="0"
     id="path973"
     style="font-style:normal;font-variant:normal;font-weight:normal;font-stretch:normal;font-family:'Google Sans';-inkscape-font-specification:'Google Sans';fill:#676c72;fill-opacity:1"
     d="m 793.76546,739.59427 v -12.95999 h 4.48 v 12.95999 l -0.53333,13.97333 h -3.46667 z m 2.24,25.54665 q -1.44,0 -2.45333,-0.96 -0.96,-1.01333 -0.96,-2.45333 0,-1.38666 0.96,-2.34666 1.01333,-1.01334 2.45333,-1.01334 1.38667,0 2.34667,1.01334 1.01333,0.96 1.01333,2.34666 0,1.44 -1.01333,2.45333 -0.96,0.96 -2.34667,0.96 z" />
</g>
<rect
   y="783.26617"
   x="-38.207996"
   height="184.45239"
   width="1051.3787"
   id="rect976"
   style="fill:#ffffff;fill-opacity:1;stroke-width:0.8495" />
</g>

    </g>

</svg>
